<svg width="370" height="80" viewBox="0 0 370 80" fill="none" xmlns="http://www.w3.org/2000/svg">
<rect x="235" y="4" width="135" height="70" rx="10" fill="#58F3EE"/>
<path d="M23.25 41.1C25.2167 41.4667 26.8333 42.45 28.1 44.05C29.3667 45.65 30 47.4833 30 49.55C30 51.4167 29.5333 53.0667 28.6 54.5C27.7 55.9 26.3833 57 24.65 57.8C22.9167 58.6 20.8667 59 18.5 59H3.45V24.1H17.85C20.2167 24.1 22.25 24.4833 23.95 25.25C25.6833 26.0167 26.9833 27.0833 27.85 28.45C28.75 29.8167 29.2 31.3667 29.2 33.1C29.2 35.1333 28.65 36.8333 27.55 38.2C26.4833 39.5667 25.05 40.5333 23.25 41.1ZM10.45 38.5H16.85C18.5167 38.5 19.8 38.1333 20.7 37.4C21.6 36.6333 22.05 35.55 22.05 34.15C22.05 32.75 21.6 31.6667 20.7 30.9C19.8 30.1333 18.5167 29.75 16.85 29.75H10.45V38.5ZM17.5 53.3C19.2 53.3 20.5167 52.9 21.45 52.1C22.4167 51.3 22.9 50.1667 22.9 48.7C22.9 47.2 22.4 46.0333 21.4 45.2C20.4 44.3333 19.05 43.9 17.35 43.9H10.45V53.3H17.5ZM42.5789 53.45H54.0789V59H35.5789V24.1H42.5789V53.45ZM74.7281 59.35C71.4615 59.35 68.4615 58.5833 65.7281 57.05C62.9948 55.5167 60.8281 53.4 59.2281 50.7C57.6281 47.9667 56.8281 44.8833 56.8281 41.45C56.8281 38.05 57.6281 35 59.2281 32.3C60.8281 29.5667 62.9948 27.4333 65.7281 25.9C68.4615 24.3667 71.4615 23.6 74.7281 23.6C78.0281 23.6 81.0281 24.3667 83.7281 25.9C86.4615 27.4333 88.6115 29.5667 90.1781 32.3C91.7781 35 92.5781 38.05 92.5781 41.45C92.5781 44.8833 91.7781 47.9667 90.1781 50.7C88.6115 53.4 86.4615 55.5167 83.7281 57.05C80.9948 58.5833 77.9948 59.35 74.7281 59.35ZM74.7281 53.1C76.8281 53.1 78.6781 52.6333 80.2781 51.7C81.8781 50.7333 83.1281 49.3667 84.0281 47.6C84.9281 45.8333 85.3781 43.7833 85.3781 41.45C85.3781 39.1167 84.9281 37.0833 84.0281 35.35C83.1281 33.5833 81.8781 32.2333 80.2781 31.3C78.6781 30.3667 76.8281 29.9 74.7281 29.9C72.6281 29.9 70.7615 30.3667 69.1281 31.3C67.5281 32.2333 66.2781 33.5833 65.3781 35.35C64.4781 37.0833 64.0281 39.1167 64.0281 41.45C64.0281 43.7833 64.4781 45.8333 65.3781 47.6C66.2781 49.3667 67.5281 50.7333 69.1281 51.7C70.7615 52.6333 72.6281 53.1 74.7281 53.1ZM122.086 34.6C121.286 33.1333 120.186 32.0167 118.786 31.25C117.386 30.4833 115.753 30.1 113.886 30.1C111.819 30.1 109.986 30.5667 108.386 31.5C106.786 32.4333 105.536 33.7667 104.636 35.5C103.736 37.2333 103.286 39.2333 103.286 41.5C103.286 43.8333 103.736 45.8667 104.636 47.6C105.569 49.3333 106.853 50.6667 108.486 51.6C110.119 52.5333 112.019 53 114.186 53C116.853 53 119.036 52.3 120.736 50.9C122.436 49.4667 123.553 47.4833 124.086 44.95H112.086V39.6H130.986V45.7C130.519 48.1333 129.519 50.3833 127.986 52.45C126.453 54.5167 124.469 56.1833 122.036 57.45C119.636 58.6833 116.936 59.3 113.936 59.3C110.569 59.3 107.519 58.55 104.786 57.05C102.086 55.5167 99.9526 53.4 98.3859 50.7C96.8526 48 96.0859 44.9333 96.0859 41.5C96.0859 38.0667 96.8526 35 98.3859 32.3C99.9526 29.5667 102.086 27.45 104.786 25.95C107.519 24.4167 110.553 23.65 113.886 23.65C117.819 23.65 121.236 24.6167 124.136 26.55C127.036 28.45 129.036 31.1333 130.136 34.6H122.086ZM160.465 34.6C159.665 33.1333 158.565 32.0167 157.165 31.25C155.765 30.4833 154.132 30.1 152.265 30.1C150.198 30.1 148.365 30.5667 146.765 31.5C145.165 32.4333 143.915 33.7667 143.015 35.5C142.115 37.2333 141.665 39.2333 141.665 41.5C141.665 43.8333 142.115 45.8667 143.015 47.6C143.948 49.3333 145.232 50.6667 146.865 51.6C148.498 52.5333 150.398 53 152.565 53C155.232 53 157.415 52.3 159.115 50.9C160.815 49.4667 161.932 47.4833 162.465 44.95H150.465V39.6H169.365V45.7C168.898 48.1333 167.898 50.3833 166.365 52.45C164.832 54.5167 162.848 56.1833 160.415 57.45C158.015 58.6833 155.315 59.3 152.315 59.3C148.948 59.3 145.898 58.55 143.165 57.05C140.465 55.5167 138.332 53.4 136.765 50.7C135.232 48 134.465 44.9333 134.465 41.5C134.465 38.0667 135.232 35 136.765 32.3C138.332 29.5667 140.465 27.45 143.165 25.95C145.898 24.4167 148.932 23.65 152.265 23.65C156.198 23.65 159.615 24.6167 162.515 26.55C165.415 28.45 167.415 31.1333 168.515 34.6H160.465ZM181.544 29.75V38.5H193.294V44.05H181.544V53.3H194.794V59H174.544V24.05H194.794V29.75H181.544ZM219.155 59L211.455 45.4H208.155V59H201.155V24.1H214.255C216.955 24.1 219.255 24.5833 221.155 25.55C223.055 26.4833 224.472 27.7667 225.405 29.4C226.372 31 226.855 32.8 226.855 34.8C226.855 37.1 226.188 39.1833 224.855 41.05C223.522 42.8833 221.538 44.15 218.905 44.85L227.255 59H219.155ZM208.155 40.15H214.005C215.905 40.15 217.322 39.7 218.255 38.8C219.188 37.8667 219.655 36.5833 219.655 34.95C219.655 33.35 219.188 32.1167 218.255 31.25C217.322 30.35 215.905 29.9 214.005 29.9H208.155V40.15Z" fill="#B6C2D5"/>
<path d="M252.441 57.7793C252.441 56.6074 252.62 55.4681 252.979 54.3613C253.337 53.222 253.727 52.0827 254.15 50.9434C254.574 49.804 254.932 48.681 255.225 47.5742C255.55 46.4349 255.664 45.2467 255.566 44.0098C254.622 42.9681 253.581 41.8451 252.441 40.6406C251.302 39.4036 250.179 38.1341 249.072 36.832C247.965 35.4974 246.94 34.1302 245.996 32.7305C245.052 31.2982 244.287 29.8496 243.701 28.3848C243.669 28.3522 243.652 28.3034 243.652 28.2383V28.043C243.652 27.6523 243.799 27.3919 244.092 27.2617C244.385 27.1315 244.694 27.0664 245.02 27.0664C245.866 28.0755 246.761 29.2311 247.705 30.5332C248.682 31.8027 249.674 33.0723 250.684 34.3418C251.693 35.6113 252.718 36.832 253.76 38.0039C254.801 39.1432 255.827 40.0872 256.836 40.8359H257.471C257.601 40.6081 257.829 40.0547 258.154 39.1758C258.48 38.2643 258.87 37.1901 259.326 35.9531C259.814 34.7161 260.319 33.349 260.84 31.8516C261.361 30.3542 261.849 28.8893 262.305 27.457C262.793 25.9922 263.2 24.625 263.525 23.3555C263.883 22.0859 264.144 21.0443 264.307 20.2305C264.339 20.1654 264.437 20.1328 264.6 20.1328C265.088 20.1328 265.479 20.3607 265.771 20.8164C266.097 21.2396 266.227 21.679 266.162 22.1348C265.283 25.2272 264.551 27.7663 263.965 29.752C263.411 31.7376 262.939 33.3652 262.549 34.6348C262.191 35.8717 261.882 36.8809 261.621 37.6621C261.361 38.4108 261.084 39.127 260.791 39.8105C260.531 40.4941 260.254 41.2591 259.961 42.1055C259.668 42.9193 259.277 44.026 258.789 45.4258C258.301 46.793 257.699 48.5671 256.982 50.748C256.266 52.8965 255.371 55.6471 254.297 59C254.264 59 254.167 59 254.004 59C253.874 59.0326 253.776 59.0488 253.711 59.0488C252.865 59.0488 252.441 58.6257 252.441 57.7793ZM268.506 57.7305C268.604 57.2747 268.685 56.6888 268.75 55.9727C268.815 55.2565 268.896 54.3125 268.994 53.1406C269.124 51.9688 269.255 50.5202 269.385 48.7949C269.548 47.0697 269.759 44.9701 270.02 42.4961C270.28 40.0221 270.573 37.125 270.898 33.8047C271.257 30.4518 271.712 26.5618 272.266 22.1348C272.298 21.8092 272.445 21.6139 272.705 21.5488C272.998 21.4837 273.258 21.4512 273.486 21.4512C273.844 21.4512 274.137 21.5814 274.365 21.8418C274.593 22.1022 274.788 22.3952 274.951 22.7207C275.146 23.0462 275.326 23.388 275.488 23.7461C275.651 24.1042 275.83 24.3971 276.025 24.625C276.351 25.3737 276.676 26.2363 277.002 27.2129C277.36 28.1895 277.734 29.2311 278.125 30.3379C278.516 31.4447 278.906 32.5677 279.297 33.707C279.688 34.8138 280.078 35.9043 280.469 36.9785C280.859 38.0202 281.217 38.9967 281.543 39.9082C281.901 40.7871 282.227 41.5195 282.52 42.1055C282.878 42.0729 283.382 41.9427 284.033 41.7148C284.684 41.4544 285.384 41.2103 286.133 40.9824C286.882 40.7546 287.614 40.5755 288.33 40.4453C289.046 40.3151 289.648 40.3151 290.137 40.4453C290.625 40.543 290.934 40.8197 291.064 41.2754C291.227 41.7311 291.113 42.4473 290.723 43.4238C290.495 43.4238 290.283 43.3913 290.088 43.3262C289.893 43.2285 289.697 43.1471 289.502 43.082C289.307 42.9844 289.095 42.903 288.867 42.8379C288.672 42.7402 288.444 42.6914 288.184 42.6914C288.021 42.6914 287.646 42.7891 287.061 42.9844C286.507 43.1471 285.905 43.3424 285.254 43.5703C284.603 43.7656 284.033 43.9772 283.545 44.2051C283.057 44.4004 282.812 44.5469 282.812 44.6445L286.182 57.877L284.912 59.7324C284.359 58.7884 283.887 57.7142 283.496 56.5098C283.138 55.2728 282.796 54.0521 282.471 52.8477C282.145 51.6107 281.803 50.4714 281.445 49.4297C281.12 48.3555 280.697 47.4603 280.176 46.7441C279.492 47.0697 278.678 47.3464 277.734 47.5742C276.79 47.8021 275.879 48.0951 275 48.4531C274.121 48.7786 273.356 49.2344 272.705 49.8203C272.087 50.3737 271.712 51.1387 271.582 52.1152C271.517 52.5059 271.452 53.0267 271.387 53.6777C271.354 54.3288 271.305 54.9473 271.24 55.5332C271.143 56.2493 271.061 56.9818 270.996 57.7305H268.506ZM274.121 28.9707L274.023 29.8008C273.991 30.3542 273.942 31.0052 273.877 31.7539C273.812 32.4701 273.73 33.2188 273.633 34C273.568 34.7487 273.519 35.3835 273.486 35.9043C273.324 37.7272 273.145 39.5339 272.949 41.3242C272.786 43.082 272.705 44.8887 272.705 46.7441C273.324 46.7441 273.975 46.6628 274.658 46.5C275.374 46.3372 276.058 46.1257 276.709 45.8652C277.36 45.5723 277.946 45.2305 278.467 44.8398C279.02 44.4167 279.443 43.9447 279.736 43.4238C279.476 42.2845 279.183 41.1126 278.857 39.9082C278.564 38.6712 278.239 37.4342 277.881 36.1973C277.523 34.9277 277.132 33.6908 276.709 32.4863C276.286 31.2819 275.83 30.11 275.342 28.9707C275.309 28.9382 275.195 28.873 275 28.7754C274.805 28.6452 274.512 28.7103 274.121 28.9707ZM288.721 19.3516C288.753 19.3516 288.867 19.3678 289.062 19.4004C289.258 19.4329 289.469 19.4655 289.697 19.498C289.925 19.498 290.137 19.5143 290.332 19.5469C290.56 19.5794 290.69 19.5957 290.723 19.5957C290.885 19.5957 291.13 19.6283 291.455 19.6934C291.781 19.7259 291.943 19.9049 291.943 20.2305V24.5273C292.497 24.3971 293.132 24.1042 293.848 23.6484C294.564 23.1602 295.41 22.6719 296.387 22.1836C297.363 21.6953 298.454 21.2884 299.658 20.9629C300.863 20.6374 302.246 20.556 303.809 20.7188C306.217 21.207 307.959 21.793 309.033 22.4766C310.107 23.1276 310.677 23.86 310.742 24.6738C310.807 25.4551 310.465 26.3014 309.717 27.2129C309.001 28.1243 308.04 29.0684 306.836 30.0449C305.632 30.9889 304.281 31.9329 302.783 32.877C301.318 33.821 299.87 34.7487 298.438 35.6602C297.038 36.5391 295.752 37.3691 294.58 38.1504C293.408 38.9316 292.529 39.6315 291.943 40.25C292.464 40.4779 293.213 40.8522 294.189 41.373C295.199 41.8613 296.289 42.4147 297.461 43.0332C298.665 43.6191 299.902 44.2539 301.172 44.9375C302.474 45.6211 303.695 46.2559 304.834 46.8418C305.973 47.3952 306.999 47.8997 307.91 48.3555C308.822 48.7786 309.473 49.0553 309.863 49.1855C310.189 49.3483 310.498 49.4948 310.791 49.625C311.019 49.7878 311.23 49.9342 311.426 50.0645C311.654 50.1947 311.768 50.3249 311.768 50.4551C311.768 50.5853 311.719 50.7643 311.621 50.9922C311.556 51.2201 311.442 51.4316 311.279 51.627C311.117 51.8223 310.938 52.0013 310.742 52.1641C310.579 52.2943 310.417 52.3594 310.254 52.3594C310.189 52.3594 310.107 52.3594 310.01 52.3594C309.945 52.3268 309.896 52.3105 309.863 52.3105C309.798 52.278 309.57 52.1803 309.18 52.0176C308.822 51.8223 308.431 51.6107 308.008 51.3828C307.617 51.1549 307.227 50.9596 306.836 50.7969C306.478 50.6016 306.25 50.4876 306.152 50.4551C305.794 50.3249 305.208 50.0807 304.395 49.7227C303.613 49.332 302.718 48.9089 301.709 48.4531C300.732 47.9648 299.691 47.444 298.584 46.8906C297.477 46.3372 296.419 45.8164 295.41 45.3281C294.434 44.8398 293.538 44.4167 292.725 44.0586C291.943 43.7005 291.374 43.4889 291.016 43.4238V58.3652H288.818L288.721 19.3516ZM291.943 27.75C291.878 28.3359 291.813 29.0195 291.748 29.8008C291.683 30.582 291.602 31.3958 291.504 32.2422C291.439 33.0885 291.374 33.9349 291.309 34.7812C291.276 35.6276 291.26 36.4089 291.26 37.125C291.39 36.9622 291.846 36.6855 292.627 36.2949C293.408 35.9043 294.352 35.416 295.459 34.8301C296.566 34.2441 297.754 33.5931 299.023 32.877C300.326 32.1608 301.546 31.4284 302.686 30.6797C303.825 29.8984 304.818 29.1335 305.664 28.3848C306.543 27.6361 307.096 26.9525 307.324 26.334C307.585 25.6829 307.454 25.097 306.934 24.5762C306.445 24.0553 305.404 23.6484 303.809 23.3555C302.93 23.2904 301.921 23.3392 300.781 23.502C299.674 23.6647 298.551 23.9414 297.412 24.332C296.305 24.7227 295.264 25.2109 294.287 25.7969C293.311 26.3503 292.529 27.0013 291.943 27.75ZM313.477 28.9707V26.627C313.867 26.627 314.307 26.7572 314.795 27.0176C315.283 27.278 315.755 27.5872 316.211 27.9453C316.667 28.3034 317.09 28.7103 317.48 29.166C317.871 29.5892 318.18 29.9473 318.408 30.2402L332.812 49.625C332.91 49.0716 332.992 48.0462 333.057 46.5488C333.154 45.0514 333.187 43.3587 333.154 41.4707C333.154 39.5501 333.105 37.5482 333.008 35.4648C332.943 33.3815 332.829 31.4447 332.666 29.6543C332.536 27.8314 332.373 26.3014 332.178 25.0645C332.015 23.7949 331.787 23.0299 331.494 22.7695C331.494 22.2812 331.576 21.8255 331.738 21.4023C331.934 20.9792 332.292 20.7676 332.812 20.7676C333.333 20.7676 333.757 21.0605 334.082 21.6465C334.408 22.2324 334.652 22.8997 334.814 23.6484C334.977 24.3646 335.091 25.0807 335.156 25.7969C335.254 26.4805 335.303 26.9362 335.303 27.1641C335.335 27.75 335.368 28.6452 335.4 29.8496C335.433 31.0215 335.465 32.3724 335.498 33.9023C335.531 35.3997 335.563 36.9948 335.596 38.6875C335.661 40.3802 335.71 41.9753 335.742 43.4727C335.807 44.9701 335.84 46.3372 335.84 47.5742C335.872 48.7786 335.905 49.6738 335.938 50.2598C335.938 50.6829 336.003 51.0736 336.133 51.4316C336.296 51.7897 336.442 52.1478 336.572 52.5059C336.735 52.8639 336.882 53.222 337.012 53.5801C337.142 53.9382 337.207 54.3125 337.207 54.7031C337.207 55.3542 336.963 55.8424 336.475 56.168C336.019 56.4609 335.498 56.6074 334.912 56.6074C334.587 56.6074 334.294 56.5749 334.033 56.5098C333.805 56.4121 333.61 56.2656 333.447 56.0703C333.317 55.8424 333.236 55.5658 333.203 55.2402C333.203 54.9147 333.268 54.4915 333.398 53.9707C333.04 53.5475 332.487 52.8639 331.738 51.9199C330.99 50.9434 330.143 49.8691 329.199 48.6973C328.288 47.4928 327.311 46.2396 326.27 44.9375C325.228 43.6354 324.235 42.3984 323.291 41.2266C322.347 40.0221 321.501 38.9479 320.752 38.0039L319.092 35.9043C319.027 35.8066 318.913 35.6764 318.75 35.5137L317.578 34.3418C317.415 34.179 317.285 34.0651 317.188 34C317.057 35.888 317.074 37.7923 317.236 39.7129C317.399 41.6009 317.611 43.4889 317.871 45.377C318.164 47.265 318.441 49.153 318.701 51.041C318.994 52.8965 319.141 54.7682 319.141 56.6562C319.141 57.1771 319.092 57.6491 318.994 58.0723C318.896 58.4629 318.506 58.7721 317.822 59C317.171 58.7721 316.732 58.349 316.504 57.7305C316.276 57.0794 316.292 56.4609 316.553 55.875L313.477 28.9707ZM347.803 57.0957C347.803 56.5423 347.9 56.1842 348.096 56.0215C348.324 55.8587 348.617 55.7773 348.975 55.7773C349.528 55.7773 350 55.9889 350.391 56.4121C350.781 56.8027 350.977 57.2585 350.977 57.7793C350.977 58.235 350.798 58.5605 350.439 58.7559C350.114 58.9186 349.74 59 349.316 59C349.121 59 348.926 58.9349 348.73 58.8047C348.568 58.6419 348.405 58.4629 348.242 58.2676C348.112 58.0397 347.998 57.8281 347.9 57.6328C347.835 57.4375 347.803 57.2585 347.803 57.0957ZM345.215 37.3691C345.215 36.0671 345.524 34.8789 346.143 33.8047C346.794 32.7305 347.575 31.7214 348.486 30.7773C349.398 29.8008 350.407 28.8568 351.514 27.9453C352.62 27.0339 353.63 26.0898 354.541 25.1133C355.452 24.1367 356.217 23.1113 356.836 22.0371C357.487 20.9303 357.812 19.7096 357.812 18.375C357.812 17.6263 357.617 17.0729 357.227 16.7148C356.836 16.3568 356.348 16.1126 355.762 15.9824C355.176 15.8197 354.541 15.7546 353.857 15.7871C353.174 15.7871 352.539 15.7871 351.953 15.7871C350.911 15.7871 349.919 15.9987 348.975 16.4219C348.031 16.8451 347.119 17.3008 346.24 17.7891C345.394 18.2448 344.548 18.6842 343.701 19.1074C342.855 19.498 341.992 19.6934 341.113 19.6934C340.723 19.6934 340.381 19.6445 340.088 19.5469C339.795 19.4167 339.648 19.026 339.648 18.375C339.648 17.9844 339.925 17.5938 340.479 17.2031C341.032 16.8125 341.732 16.4382 342.578 16.0801C343.457 15.6895 344.417 15.3314 345.459 15.0059C346.533 14.6478 347.575 14.3548 348.584 14.127C349.593 13.8991 350.488 13.7201 351.27 13.5898C352.083 13.4271 352.702 13.3457 353.125 13.3457C353.841 13.3457 354.622 13.4108 355.469 13.541C356.348 13.6387 357.129 13.8503 357.812 14.1758C358.529 14.4688 359.115 14.9082 359.57 15.4941C360.059 16.0475 360.303 16.7799 360.303 17.6914C360.303 19.3516 359.88 20.9954 359.033 22.623C358.187 24.2507 357.161 25.7969 355.957 27.2617C354.785 28.694 353.548 30.0449 352.246 31.3145C350.977 32.5514 349.886 33.6582 348.975 34.6348C348.584 34.8301 348.324 35.1393 348.193 35.5625C348.096 35.9531 348.112 36.3763 348.242 36.832C348.372 37.2552 348.6 37.6784 348.926 38.1016C349.284 38.4922 349.723 38.8014 350.244 39.0293C350.798 39.2246 351.416 39.2897 352.1 39.2246C352.783 39.127 353.532 38.834 354.346 38.3457L355.273 40.25C354.59 40.7708 353.792 41.1289 352.881 41.3242C351.969 41.487 351.09 41.5684 350.244 41.5684C349.626 41.5684 349.023 41.4707 348.438 41.2754C347.852 41.0801 347.314 40.8034 346.826 40.4453C346.338 40.0872 345.947 39.6478 345.654 39.127C345.361 38.6061 345.215 38.0202 345.215 37.3691Z" fill="#0F1522"/>
</svg>
