<svg width="3294" height="1011" viewBox="0 0 3294 1011" fill="none" xmlns="http://www.w3.org/2000/svg">
<rect x="2013" y="248" width="902" height="500" rx="71.4752" fill="#87C5FF"/>
<path d="M500.042 510.345C514.575 513.442 526.25 520.709 535.065 532.145C543.88 543.342 548.288 556.208 548.288 570.741C548.288 591.707 540.902 608.385 526.131 620.774C511.597 632.925 491.227 639 465.019 639H348.157V388.122H461.088C486.581 388.122 506.475 393.959 520.77 405.633C535.303 417.308 542.57 433.151 542.57 453.164C542.57 467.936 538.639 480.206 530.776 489.974C523.152 499.742 512.908 506.533 500.042 510.345ZM409.269 489.617H449.295C459.301 489.617 466.925 487.473 472.167 483.184C477.647 478.657 480.386 472.105 480.386 463.528C480.386 454.951 477.647 448.399 472.167 443.873C466.925 439.346 459.301 437.083 449.295 437.083H409.269V489.617ZM454.298 589.682C464.543 589.682 472.405 587.419 477.885 582.892C483.603 578.127 486.462 571.337 486.462 562.522C486.462 553.706 483.484 546.797 477.527 541.794C471.809 536.79 463.828 534.289 453.583 534.289H409.269V589.682H454.298ZM644.844 591.826H724.896V639H583.732V388.122H644.844V591.826ZM872.693 641.502C849.106 641.502 827.426 636.022 807.651 625.062C788.114 614.103 772.509 598.855 760.835 579.318C749.399 559.543 743.68 537.386 743.68 512.846C743.68 488.306 749.399 466.268 760.835 446.732C772.509 427.195 788.114 411.947 807.651 400.988C827.426 390.028 849.106 384.548 872.693 384.548C896.28 384.548 917.842 390.028 937.378 400.988C957.153 411.947 972.639 427.195 983.837 446.732C995.273 466.268 1000.99 488.306 1000.99 512.846C1000.99 537.386 995.273 559.543 983.837 579.318C972.401 598.855 956.915 614.103 937.378 625.062C917.842 636.022 896.28 641.502 872.693 641.502ZM872.693 585.751C892.706 585.751 908.669 579.08 920.582 565.738C932.732 552.396 938.808 534.765 938.808 512.846C938.808 490.689 932.732 473.058 920.582 459.955C908.669 446.613 892.706 439.942 872.693 439.942C852.442 439.942 836.241 446.493 824.09 459.597C812.178 472.701 806.221 490.451 806.221 512.846C806.221 535.004 812.178 552.753 824.09 566.095C836.241 579.199 852.442 585.751 872.693 585.751ZM1201.53 467.459C1197 459.121 1190.45 452.807 1181.87 448.519C1173.53 443.992 1163.64 441.728 1152.21 441.728C1132.43 441.728 1116.59 448.28 1104.68 461.384C1092.77 474.25 1086.81 491.523 1086.81 513.204C1086.81 536.314 1093 554.421 1105.39 567.525C1118.02 580.39 1135.29 586.823 1157.21 586.823C1172.22 586.823 1184.85 583.011 1195.09 575.387C1205.58 567.763 1213.2 556.804 1217.97 542.508H1140.42V497.479H1273.36V554.302C1268.83 569.55 1261.09 583.726 1250.13 596.83C1239.41 609.933 1225.71 620.536 1209.03 628.636C1192.35 636.737 1173.53 640.787 1152.57 640.787C1127.79 640.787 1105.63 635.426 1086.09 624.705C1066.8 613.745 1051.67 598.617 1040.71 579.318C1029.99 560.02 1024.63 537.982 1024.63 513.204C1024.63 488.426 1029.99 466.387 1040.71 447.089C1051.67 427.552 1066.8 412.424 1086.09 401.702C1105.39 390.743 1127.43 385.263 1152.21 385.263C1182.23 385.263 1207.48 392.53 1227.97 407.063C1248.7 421.596 1262.4 441.728 1269.07 467.459H1201.53ZM1473.75 467.459C1469.22 459.121 1462.67 452.807 1454.09 448.519C1445.75 443.992 1435.86 441.728 1424.43 441.728C1404.65 441.728 1388.81 448.28 1376.9 461.384C1364.99 474.25 1359.03 491.523 1359.03 513.204C1359.03 536.314 1365.22 554.421 1377.61 567.525C1390.24 580.39 1407.51 586.823 1429.43 586.823C1444.44 586.823 1457.07 583.011 1467.31 575.387C1477.8 567.763 1485.42 556.804 1490.19 542.508H1412.64V497.479H1545.58V554.302C1541.05 569.55 1533.31 583.726 1522.35 596.83C1511.63 609.933 1497.93 620.536 1481.25 628.636C1464.57 636.737 1445.75 640.787 1424.79 640.787C1400.01 640.787 1377.85 635.426 1358.31 624.705C1339.02 613.745 1323.89 598.617 1312.93 579.318C1302.21 560.02 1296.85 537.982 1296.85 513.204C1296.85 488.426 1302.21 466.387 1312.93 447.089C1323.89 427.552 1339.02 412.424 1358.31 401.702C1377.61 390.743 1399.65 385.263 1424.43 385.263C1454.45 385.263 1479.7 392.53 1500.19 407.063C1520.92 421.596 1534.62 441.728 1541.29 467.459H1473.75ZM1640.54 437.083V487.83H1722.38V535.004H1640.54V590.039H1733.1V639H1579.43V388.122H1733.1V437.083H1640.54ZM1900.72 639L1848.54 544.295H1833.89V639H1772.78V388.122H1875.34C1895.12 388.122 1911.91 391.577 1925.73 398.486C1939.79 405.395 1950.27 414.925 1957.18 427.076C1964.09 438.989 1967.55 452.331 1967.55 467.102C1967.55 483.78 1962.78 498.67 1953.25 511.774C1943.96 524.878 1930.14 534.17 1911.79 539.649L1969.69 639H1900.72ZM1833.89 501.053H1871.77C1882.97 501.053 1891.31 498.313 1896.79 492.833C1902.5 487.353 1905.36 479.61 1905.36 469.604C1905.36 460.074 1902.5 452.569 1896.79 447.089C1891.31 441.609 1882.97 438.869 1871.77 438.869H1833.89V501.053Z" fill="#BBC4DB"/>
<path d="M2116.37 630.275C2116.37 621.899 2117.65 613.756 2120.21 605.845C2122.77 597.702 2125.56 589.558 2128.59 581.415C2131.61 573.272 2134.17 565.245 2136.26 557.334C2138.59 549.191 2139.4 540.698 2138.71 531.857C2131.96 524.412 2124.51 516.385 2116.37 507.776C2108.23 498.935 2100.2 489.861 2092.29 480.554C2084.38 471.015 2077.05 461.243 2070.3 451.238C2063.55 441.001 2058.09 430.647 2053.9 420.177C2053.67 419.944 2053.55 419.595 2053.55 419.13V417.734C2053.55 414.942 2054.6 413.081 2056.69 412.15C2058.79 411.219 2061 410.754 2063.32 410.754C2069.37 417.967 2075.77 426.226 2082.52 435.533C2089.5 444.607 2096.59 453.681 2103.81 462.755C2111.02 471.829 2118.35 480.554 2125.79 488.93C2133.24 497.073 2140.57 503.821 2147.78 509.172H2152.32C2153.25 507.543 2154.88 503.588 2157.2 497.306C2159.53 490.791 2162.32 483.113 2165.58 474.272C2169.07 465.431 2172.68 455.659 2176.4 444.956C2180.12 434.253 2183.61 423.783 2186.87 413.546C2190.36 403.076 2193.27 393.304 2195.59 384.23C2198.15 375.156 2200.01 367.711 2201.18 361.894C2201.41 361.429 2202.11 361.196 2203.27 361.196C2206.76 361.196 2209.55 362.825 2211.65 366.082C2213.97 369.107 2214.9 372.248 2214.44 375.505C2208.16 397.608 2202.92 415.756 2198.73 429.949C2194.78 444.142 2191.41 455.775 2188.61 464.849C2186.05 473.69 2183.84 480.903 2181.98 486.487C2180.12 491.838 2178.14 496.957 2176.05 501.843C2174.19 506.729 2172.21 512.197 2170.12 518.246C2168.02 524.063 2165.23 531.973 2161.74 541.978C2158.25 551.75 2153.95 564.43 2148.83 580.019C2143.71 595.375 2137.31 615.035 2129.63 639C2129.4 639 2128.7 639 2127.54 639C2126.61 639.233 2125.91 639.349 2125.44 639.349C2119.39 639.349 2116.37 636.324 2116.37 630.275ZM2231.19 629.926C2231.89 626.669 2232.47 622.481 2232.94 617.362C2233.4 612.243 2233.98 605.496 2234.68 597.12C2235.61 588.744 2236.54 578.39 2237.47 566.059C2238.64 553.728 2240.15 538.721 2242.01 521.038C2243.87 503.355 2245.97 482.648 2248.29 458.916C2250.85 434.951 2254.11 407.148 2258.06 375.505C2258.3 373.178 2259.34 371.782 2261.21 371.317C2263.3 370.852 2265.16 370.619 2266.79 370.619C2269.35 370.619 2271.44 371.55 2273.07 373.411C2274.7 375.272 2276.1 377.366 2277.26 379.693C2278.66 382.02 2279.94 384.463 2281.1 387.022C2282.26 389.581 2283.54 391.675 2284.94 393.304C2287.26 398.655 2289.59 404.821 2291.92 411.801C2294.48 418.781 2297.15 426.226 2299.94 434.137C2302.74 442.048 2305.53 450.075 2308.32 458.218C2311.11 466.129 2313.9 473.923 2316.7 481.601C2319.49 489.046 2322.05 496.026 2324.37 502.541C2326.93 508.823 2329.26 514.058 2331.35 518.246C2333.91 518.013 2337.52 517.083 2342.17 515.454C2346.83 513.593 2351.83 511.848 2357.18 510.219C2362.53 508.59 2367.77 507.311 2372.89 506.38C2378 505.449 2382.31 505.449 2385.8 506.38C2389.29 507.078 2391.5 509.056 2392.43 512.313C2393.59 515.57 2392.78 520.689 2389.99 527.669C2388.36 527.669 2386.85 527.436 2385.45 526.971C2384.05 526.273 2382.66 525.691 2381.26 525.226C2379.87 524.528 2378.35 523.946 2376.72 523.481C2375.33 522.783 2373.7 522.434 2371.84 522.434C2370.68 522.434 2368 523.132 2363.81 524.528C2359.86 525.691 2355.55 527.087 2350.9 528.716C2346.25 530.112 2342.17 531.624 2338.68 533.253C2335.19 534.649 2333.45 535.696 2333.45 536.394L2357.53 630.973L2348.46 644.235C2344.5 637.488 2341.13 629.81 2338.33 621.201C2335.78 612.36 2333.33 603.635 2331.01 595.026C2328.68 586.185 2326.24 578.041 2323.68 570.596C2321.35 562.918 2318.33 556.52 2314.6 551.401C2309.72 553.728 2303.9 555.705 2297.15 557.334C2290.41 558.963 2283.89 561.057 2277.61 563.616C2271.33 565.943 2265.86 569.2 2261.21 573.388C2256.78 577.343 2254.11 582.811 2253.18 589.791C2252.71 592.583 2252.25 596.306 2251.78 600.959C2251.55 605.612 2251.2 610.033 2250.74 614.221C2250.04 619.34 2249.46 624.575 2248.99 629.926H2231.19ZM2271.33 424.365L2270.63 430.298C2270.4 434.253 2270.05 438.907 2269.58 444.258C2269.12 449.377 2268.53 454.728 2267.84 460.312C2267.37 465.663 2267.02 470.2 2266.79 473.923C2265.63 486.952 2264.35 499.865 2262.95 512.662C2261.79 525.226 2261.21 538.139 2261.21 551.401C2265.63 551.401 2270.28 550.819 2275.17 549.656C2280.28 548.493 2285.17 546.98 2289.82 545.119C2294.48 543.025 2298.66 540.582 2302.39 537.79C2306.34 534.765 2309.37 531.392 2311.46 527.669C2309.6 519.526 2307.51 511.15 2305.18 502.541C2303.09 493.7 2300.76 484.858 2298.2 476.017C2295.64 466.943 2292.85 458.102 2289.82 449.493C2286.8 440.884 2283.54 432.508 2280.05 424.365C2279.82 424.132 2279 423.667 2277.61 422.969C2276.21 422.038 2274.12 422.504 2271.33 424.365ZM2375.68 355.612C2375.91 355.612 2376.72 355.728 2378.12 355.961C2379.52 356.194 2381.03 356.426 2382.66 356.659C2384.29 356.659 2385.8 356.775 2387.19 357.008C2388.82 357.241 2389.75 357.357 2389.99 357.357C2391.15 357.357 2392.89 357.59 2395.22 358.055C2397.55 358.288 2398.71 359.567 2398.71 361.894V392.606C2402.67 391.675 2407.2 389.581 2412.32 386.324C2417.44 382.834 2423.49 379.344 2430.47 375.854C2437.45 372.364 2445.24 369.456 2453.85 367.129C2462.46 364.802 2472.35 364.221 2483.52 365.384C2500.74 368.874 2513.18 373.062 2520.86 377.948C2528.54 382.601 2532.61 387.836 2533.08 393.653C2533.54 399.237 2531.1 405.286 2525.75 411.801C2520.63 418.316 2513.77 425.063 2505.16 432.043C2496.55 438.79 2486.89 445.538 2476.19 452.285C2465.72 459.032 2455.37 465.663 2445.13 472.178C2435.12 478.46 2425.93 484.393 2417.56 489.977C2409.18 495.561 2402.9 500.563 2398.71 504.984C2402.43 506.613 2407.79 509.288 2414.77 513.011C2421.98 516.501 2429.77 520.456 2438.15 524.877C2446.76 529.065 2455.6 533.602 2464.67 538.488C2473.98 543.374 2482.7 547.911 2490.85 552.099C2498.99 556.054 2506.32 559.661 2512.83 562.918C2519.35 565.943 2524 567.92 2526.79 568.851C2529.12 570.014 2531.33 571.061 2533.43 571.992C2535.05 573.155 2536.57 574.202 2537.96 575.133C2539.59 576.064 2540.41 576.994 2540.41 577.925C2540.41 578.856 2540.06 580.135 2539.36 581.764C2538.89 583.393 2538.08 584.905 2536.92 586.301C2535.75 587.697 2534.47 588.977 2533.08 590.14C2531.91 591.071 2530.75 591.536 2529.59 591.536C2529.12 591.536 2528.54 591.536 2527.84 591.536C2527.38 591.303 2527.03 591.187 2526.79 591.187C2526.33 590.954 2524.7 590.256 2521.91 589.093C2519.35 587.697 2516.56 586.185 2513.53 584.556C2510.74 582.927 2507.95 581.531 2505.16 580.368C2502.6 578.972 2500.97 578.158 2500.27 577.925C2497.71 576.994 2493.52 575.249 2487.71 572.69C2482.12 569.898 2475.72 566.873 2468.51 563.616C2461.53 560.126 2454.09 556.403 2446.18 552.448C2438.26 548.493 2430.7 544.77 2423.49 541.28C2416.51 537.79 2410.11 534.765 2404.3 532.206C2398.71 529.647 2394.64 528.134 2392.08 527.669V634.463H2376.38L2375.68 355.612ZM2398.71 415.64C2398.25 419.828 2397.78 424.714 2397.32 430.298C2396.85 435.882 2396.27 441.699 2395.57 447.748C2395.11 453.797 2394.64 459.847 2394.17 465.896C2393.94 471.945 2393.83 477.529 2393.83 482.648C2394.76 481.485 2398.01 479.507 2403.6 476.715C2409.18 473.923 2415.93 470.433 2423.84 466.245C2431.75 462.057 2440.24 457.404 2449.32 452.285C2458.62 447.166 2467.35 441.931 2475.49 436.58C2483.63 430.996 2490.73 425.528 2496.78 420.177C2503.06 414.826 2507.02 409.94 2508.65 405.519C2510.51 400.866 2509.58 396.678 2505.85 392.955C2502.36 389.232 2494.92 386.324 2483.52 384.23C2477.24 383.765 2470.02 384.114 2461.88 385.277C2453.97 386.44 2445.94 388.418 2437.8 391.21C2429.89 394.002 2422.44 397.492 2415.46 401.68C2408.48 405.635 2402.9 410.289 2398.71 415.64ZM2552.62 424.365V407.613C2555.41 407.613 2558.55 408.544 2562.04 410.405C2565.53 412.266 2568.91 414.477 2572.16 417.036C2575.42 419.595 2578.45 422.504 2581.24 425.761C2584.03 428.786 2586.24 431.345 2587.87 433.439L2690.82 571.992C2691.52 568.037 2692.1 560.708 2692.57 550.005C2693.27 539.302 2693.5 527.204 2693.27 513.709C2693.27 499.982 2692.92 485.673 2692.22 470.782C2691.76 455.891 2690.94 442.048 2689.78 429.251C2688.85 416.222 2687.68 405.286 2686.29 396.445C2685.12 387.371 2683.5 381.903 2681.4 380.042C2681.4 376.552 2681.98 373.295 2683.15 370.27C2684.54 367.245 2687.1 365.733 2690.82 365.733C2694.55 365.733 2697.57 367.827 2699.9 372.015C2702.23 376.203 2703.97 380.973 2705.13 386.324C2706.3 391.443 2707.11 396.561 2707.58 401.68C2708.27 406.566 2708.62 409.823 2708.62 411.452C2708.86 415.64 2709.09 422.038 2709.32 430.647C2709.55 439.023 2709.79 448.679 2710.02 459.614C2710.25 470.317 2710.48 481.717 2710.72 493.816C2711.18 505.915 2711.53 517.315 2711.76 528.018C2712.23 538.721 2712.46 548.493 2712.46 557.334C2712.7 565.943 2712.93 572.341 2713.16 576.529C2713.16 579.554 2713.63 582.346 2714.56 584.905C2715.72 587.464 2716.77 590.024 2717.7 592.583C2718.86 595.142 2719.91 597.702 2720.84 600.261C2721.77 602.82 2722.23 605.496 2722.23 608.288C2722.23 612.941 2720.49 616.431 2717 618.758C2713.74 620.852 2710.02 621.899 2705.83 621.899C2703.5 621.899 2701.41 621.666 2699.55 621.201C2697.92 620.503 2696.52 619.456 2695.36 618.06C2694.43 616.431 2693.85 614.454 2693.62 612.127C2693.62 609.8 2694.08 606.776 2695.01 603.053C2692.45 600.028 2688.5 595.142 2683.15 588.395C2677.8 581.415 2671.75 573.737 2665 565.361C2658.48 556.752 2651.5 547.795 2644.06 538.488C2636.61 529.181 2629.52 520.34 2622.77 511.964C2616.02 503.355 2609.97 495.677 2604.62 488.93L2592.76 473.923C2592.29 473.225 2591.48 472.294 2590.31 471.131L2581.94 462.755C2580.77 461.592 2579.84 460.777 2579.14 460.312C2578.21 473.807 2578.33 487.418 2579.49 501.145C2580.66 514.64 2582.17 528.134 2584.03 541.629C2586.12 555.124 2588.1 568.618 2589.96 582.113C2592.06 595.375 2593.1 608.753 2593.1 622.248C2593.1 625.971 2592.76 629.344 2592.06 632.369C2591.36 635.161 2588.57 637.371 2583.68 639C2579.03 637.371 2575.89 634.347 2574.26 629.926C2572.63 625.273 2572.75 620.852 2574.61 616.664L2552.62 424.365ZM2797.97 625.389C2797.97 621.434 2798.67 618.874 2800.06 617.711C2801.69 616.548 2803.78 615.966 2806.34 615.966C2810.3 615.966 2813.67 617.478 2816.46 620.503C2819.26 623.295 2820.65 626.552 2820.65 630.275C2820.65 633.532 2819.37 635.859 2816.81 637.255C2814.49 638.418 2811.81 639 2808.79 639C2807.39 639 2805.99 638.535 2804.6 637.604C2803.44 636.441 2802.27 635.161 2801.11 633.765C2800.18 632.136 2799.36 630.624 2798.67 629.228C2798.2 627.832 2797.97 626.552 2797.97 625.389ZM2779.47 484.393C2779.47 475.086 2781.68 466.594 2786.1 458.916C2790.75 451.238 2796.34 444.025 2802.85 437.278C2809.37 430.298 2816.58 423.551 2824.49 417.036C2832.4 410.521 2839.61 403.774 2846.13 396.794C2852.64 389.814 2858.11 382.485 2862.53 374.807C2867.19 366.896 2869.51 358.171 2869.51 348.632C2869.51 343.281 2868.12 339.325 2865.32 336.766C2862.53 334.207 2859.04 332.462 2854.85 331.531C2850.67 330.368 2846.13 329.902 2841.24 330.135C2836.36 330.135 2831.82 330.135 2827.63 330.135C2820.19 330.135 2813.09 331.647 2806.34 334.672C2799.6 337.697 2793.08 340.954 2786.8 344.444C2780.75 347.701 2774.7 350.842 2768.65 353.867C2762.6 356.659 2756.44 358.055 2750.15 358.055C2747.36 358.055 2744.92 357.706 2742.83 357.008C2740.73 356.077 2739.68 353.285 2739.68 348.632C2739.68 345.84 2741.66 343.048 2745.62 340.256C2749.57 337.464 2754.58 334.788 2760.62 332.229C2766.91 329.437 2773.77 326.878 2781.22 324.551C2788.89 321.992 2796.34 319.898 2803.55 318.269C2810.76 316.64 2817.16 315.361 2822.75 314.43C2828.56 313.267 2832.98 312.685 2836.01 312.685C2841.13 312.685 2846.71 313.15 2852.76 314.081C2859.04 314.779 2864.63 316.291 2869.51 318.618C2874.63 320.712 2878.82 323.853 2882.08 328.041C2885.57 331.996 2887.31 337.231 2887.31 343.746C2887.31 355.612 2884.29 367.362 2878.24 378.995C2872.19 390.628 2864.86 401.68 2856.25 412.15C2847.87 422.387 2839.03 432.043 2829.73 441.117C2820.65 449.958 2812.86 457.869 2806.34 464.849C2803.55 466.245 2801.69 468.455 2800.76 471.48C2800.06 474.272 2800.18 477.297 2801.11 480.554C2802.04 483.579 2803.67 486.603 2805.99 489.628C2808.55 492.42 2811.69 494.63 2815.42 496.259C2819.37 497.655 2823.79 498.12 2828.68 497.655C2833.57 496.957 2838.92 494.863 2844.73 491.373L2851.36 504.984C2846.48 508.707 2840.78 511.266 2834.26 512.662C2827.75 513.825 2821.47 514.407 2815.42 514.407C2811 514.407 2806.69 513.709 2802.5 512.313C2798.32 510.917 2794.48 508.939 2790.99 506.38C2787.5 503.821 2784.71 500.68 2782.61 496.957C2780.52 493.234 2779.47 489.046 2779.47 484.393Z" fill="#0F1522"/>
</svg>
