<svg width="1187" height="1121" viewBox="0 0 1187 1121" fill="none" xmlns="http://www.w3.org/2000/svg">
<g filter="url(#filter0_d_41_1518)">
<circle cx="414.296" cy="427.602" r="414.296" fill="#CBC5F0"/>
</g>
<g filter="url(#filter1_d_41_1518)">
<path d="M1049.27 103.522L1080.43 134.683C1089.05 143.302 1089.05 157.225 1080.43 165.844L985.4 261.095V474.802H742.3V143.302H978.107L1017.89 103.522C1026.73 94.9026 1040.65 94.6816 1049.27 103.522ZM924.183 290.93L1042.86 172.474L1011.48 141.092L893.022 259.769L877.331 306.621L924.183 290.93Z" fill="#3F3D4D"/>
</g>
<path d="M444.746 157.248C444.746 157.248 627.363 185.821 613.515 446.04C613.465 447.005 634.63 461.057 636.288 462.558C651.046 475.906 663.429 493.001 668.844 512.997C688.124 584.206 619.191 657.577 563.446 677.053C542.624 684.326 520.615 687.857 498.563 688.499C355.209 692.673 165.415 601.56 155.667 423.62C155.318 417.236 155.232 410.845 155.396 404.468C156.26 370.682 164.415 337.777 176.704 307.225C176.699 307.226 256.482 109.332 444.746 157.248Z" fill="#BDA09E"/>
<path opacity="0.3" d="M526.786 461.499C526.786 461.499 555.755 433.937 578.181 459.851Z" fill="#110E0C"/>
<path d="M256.676 598.874C160.295 647.182 72.7585 525.951 100.758 457.826C118.618 414.371 170.74 411.006 200.958 450.712C218.792 474.146 233.226 504.097 241.426 532.748" fill="#BDA09E"/>
<path opacity="0.3" d="M177.241 490.693C189.649 503.322 199.626 522.052 211.886 532.501C209.614 515.021 205.992 496.355 197.5 480.601C188.877 464.6 173.202 451.417 157.247 452.499C137.475 453.841 121.203 476.876 119.117 497.765C120.364 485.264 145.495 476.811 155.089 477.998C170.122 506.33 175.959 562.163 175.959 562.163C188.462 530.559 183.386 505.698 177.241 490.693Z" fill="#110E0C"/>
<path d="M558.255 528.226C571.242 528.586 583.694 524.871 594.418 513.722C600.03 507.894 605.72 504.685 613.771 509.671C633.048 521.611 637.586 551.441 632.404 571.442C626.716 593.389 609.579 611.082 589.829 622.622C536.687 653.674 495.925 646.686 441.544 626.836C398.739 611.216 340.869 579.728 355.538 525.536C373.704 458.439 451.993 490.654 496.166 508.754C514.923 516.447 537.285 527.644 558.255 528.226Z" fill="white"/>
<mask id="mask0_41_1518" style="mask-type:alpha" maskUnits="userSpaceOnUse" x="353" y="484" width="282" height="160">
<path d="M558.254 528.226C571.241 528.586 583.693 524.871 594.417 513.722C600.029 507.894 605.719 504.685 613.77 509.671C633.047 521.611 637.585 551.441 632.403 571.442C626.715 593.389 609.578 611.082 589.828 622.622C536.686 653.674 495.924 646.686 441.543 626.836C398.738 611.216 340.868 579.728 355.537 525.536C373.703 458.439 451.992 490.654 496.165 508.754C514.922 516.447 537.284 527.644 558.254 528.226Z" fill="white"/>
</mask>
<g mask="url(#mask0_41_1518)">
<path fill-rule="evenodd" clip-rule="evenodd" d="M380.959 602.756L436.591 462.31L444.335 465.379L388.703 605.826L380.959 602.756ZM495.271 648.135L533.697 500.765L541.757 502.868L503.331 650.238L495.271 648.135ZM609.638 612.553L588.435 504.508L596.609 502.903L617.812 610.948L609.638 612.553Z" fill="#D1D3D4"/>
</g>
<path d="M483.111 417.736C483.079 434.228 474.465 447.615 456.578 444.871C443.702 441.423 435.132 432.345 435.166 415.049C435.201 396.926 445.753 385.166 456.694 385.145C471.319 385.117 483.143 401.243 483.111 417.736Z" fill="#2A1200"/>
<path d="M605.052 417.438C605.031 428.493 600.027 440.365 587.224 439.001C576.48 437.855 573.736 423.748 573.75 416.803C573.774 404.655 579.859 393.179 588.736 393.162C598.283 393.144 605.074 406.383 605.052 417.438Z" fill="#2A1200"/>
<path d="M491.12 339.581C473.873 331.037 452.33 331.832 435.035 341.573C429.458 344.714 425.858 352.221 428.716 358.587C431.354 364.474 438.312 368.169 444.283 364.801C446.073 363.791 447.899 362.874 449.78 362.082C450.366 361.835 451.871 361.541 452.455 361.09C452.727 361.01 452.995 360.929 453.271 360.856C454.974 360.397 456.693 360.026 458.424 359.743C459.416 359.581 460.406 359.453 461.4 359.349C461.714 359.318 462.026 359.292 462.343 359.267C463.157 359.371 464.171 359.226 464.934 359.25C465.93 359.281 466.918 359.345 467.91 359.438C469.64 359.6 471.36 359.851 473.06 360.193C473.299 360.24 473.531 360.293 473.768 360.346C474.657 360.624 475.55 360.881 476.431 361.191C478.303 361.854 480.125 362.647 481.912 363.528C487.484 366.291 495.346 362.387 497.473 356.096C499.806 349.167 497.09 342.54 491.12 339.581Z" fill="#451E00"/>
<path d="M611.321 345.586C601.009 339.986 589.179 338.727 578.531 341.803C575.658 342.634 573.035 345.138 571.805 347.908C570.592 350.635 570.345 354.542 571.54 357.509C572.783 360.588 574.904 363.517 577.893 364.978C580.924 366.46 584.022 366.842 587.144 365.944C587.655 365.796 588.179 365.71 588.699 365.588C590.319 365.404 591.947 365.355 593.59 365.425C595.564 365.723 597.509 366.204 599.428 366.865C600.097 367.172 600.781 367.445 601.435 367.799C604.26 369.33 607.793 369.696 610.686 368.765C613.454 367.874 616.294 365.493 617.409 362.656C618.566 359.719 618.953 356.228 617.674 353.055C616.401 349.892 614.309 347.207 611.321 345.586Z" fill="#451E00"/>
<mask id="mask1_41_1518" style="mask-type:alpha" maskUnits="userSpaceOnUse" x="526" y="197" width="234" height="346">
<path d="M610.218 355.342C600.21 280.905 562.959 226.651 526.125 219.938L688.751 197.718L759.64 448.389L672.072 542.13C677.632 497.69 635.469 461.119 613.693 448.389C616.473 430.057 612.535 378.72 610.218 355.342Z" fill="#C4C4C4"/>
</mask>
<g mask="url(#mask1_41_1518)">
<path d="M656.031 418.824C647.164 343.514 578.175 303.328 544.442 296.9C551.224 260.279 565.637 262.529 594.392 268.219C694.859 288.1 711.123 375.987 710.169 420.77C672.779 426.242 657.924 426.051 656.031 418.824Z" fill="#3F3D4C"/>
<ellipse rx="27.0194" ry="14.1618" transform="matrix(-1.0179 -0.0477995 -0.157656 0.970797 682.724 419.824)" fill="#423932"/>
<path opacity="0.6" fill-rule="evenodd" clip-rule="evenodd" d="M655.754 416.63C645.821 342.734 577.845 303.265 544.442 296.9C543.425 287.913 568.376 291.966 595.501 301.989C665.233 327.754 684.46 366.43 683.507 411.214C683.398 411.229 683.289 411.245 683.181 411.261C682.937 418.905 682.211 429.024 680.491 433.572C665.302 432.859 653.988 426.125 655.221 418.532C655.325 417.889 655.504 417.254 655.754 416.63Z" fill="#240F00"/>
<path d="M622.62 443.067C615.905 366.517 548.917 323.528 515.806 315.895C523.486 279.04 537.647 281.798 565.867 288.518C664.461 311.996 678.137 401.528 675.987 446.842C638.946 451.137 624.293 450.448 622.62 443.067Z" fill="#3F3D4C"/>
<ellipse rx="26.8027" ry="14.2579" transform="matrix(-1.01119 -0.082979 -0.180541 0.971142 648.932 444.97)" fill="#423932"/>
<path opacity="0.6" fill-rule="evenodd" clip-rule="evenodd" d="M622.406 440.837C614.601 365.682 548.594 323.453 515.806 315.895C515.045 306.761 539.555 311.696 566.049 322.748C634.158 351.161 652.086 390.963 649.936 436.277C649.829 436.29 649.721 436.302 649.614 436.315C649.167 444.046 648.177 454.268 646.358 458.816C631.389 457.588 620.407 450.393 621.829 442.745C621.949 442.098 622.143 441.46 622.406 440.837Z" fill="#240F00"/>
<path d="M592.108 498.246C606.01 420.243 554.977 358.494 526.167 341.509C543.018 307.052 555.473 313.814 579.97 328.503C665.56 379.827 654.718 472.71 640.788 517.146C605.179 510.902 591.722 506.058 592.108 498.246Z" fill="#3F3D4C"/>
<ellipse rx="26.5569" ry="14.3658" transform="matrix(-0.927863 -0.37292 -0.420529 0.907279 616.098 507.606)" fill="#423932"/>
<path opacity="0.6" fill-rule="evenodd" clip-rule="evenodd" d="M592.496 495.969C605.017 419.043 554.696 358.329 526.167 341.509C527.863 332.213 549.378 344.076 571.128 362.583C627.044 410.159 633.252 454.814 619.322 499.25C619.218 499.232 619.115 499.214 619.012 499.196C616.56 506.755 612.948 516.635 610.057 520.639C596.448 515.17 588.12 504.9 591.457 497.702C591.739 497.092 592.088 496.514 592.496 495.969Z" fill="#240F00"/>
<path opacity="0.5" d="M698.456 352.095C698.752 349.824 692.374 337.888 689.149 332.203L641.576 350.302L600.789 390.682C601.658 406.193 606.333 438.413 618.084 443.202C629.834 447.991 642.453 446.202 649.71 444.428C652.639 440.733 657.601 409.959 654.236 380.99C670.804 379.069 698.086 354.934 698.456 352.095Z" fill="#220F01"/>
<path d="M660.276 331.35C646.95 256.699 575.694 220.677 541.639 216.261C546.233 179.303 560.754 180.693 589.797 184.668C691.268 198.554 712.725 285.32 714.435 330.081C677.436 337.762 662.595 338.452 660.276 331.35Z" fill="#3F3D4C"/>
<ellipse rx="27.0196" ry="14.1616" transform="matrix(-1.01893 0.0126705 -0.0996865 0.978446 686.982 330.765)" fill="#423932"/>
<path opacity="0.6" fill-rule="evenodd" clip-rule="evenodd" d="M659.87 329.177C645.564 256 575.362 220.633 541.64 216.261C540.09 207.35 565.238 209.916 592.91 218.312C664.051 239.895 685.542 277.362 687.252 322.123C687.144 322.145 687.037 322.168 686.93 322.19C687.141 329.835 687.017 339.979 685.571 344.621C670.366 344.81 658.672 338.76 659.451 331.107C659.517 330.459 659.658 329.814 659.87 329.177Z" fill="#240F00"/>
<path d="M628.367 357.533C617.114 281.516 547.689 242.576 514.184 236.921C519.66 199.676 533.96 201.589 562.529 206.623C662.345 224.21 681.316 312.773 681.864 358.135C645.143 364.62 630.475 364.801 628.367 357.533Z" fill="#3F3D4C"/>
<ellipse rx="26.8029" ry="14.2577" transform="matrix(-1.01433 -0.0228446 -0.122511 0.980151 654.745 357.871)" fill="#423932"/>
<path opacity="0.6" fill-rule="evenodd" clip-rule="evenodd" d="M628.02 355.319C615.762 280.759 547.362 242.521 514.183 236.921C512.88 227.849 537.641 231.321 564.744 240.782C634.422 265.104 654.684 303.772 655.231 349.134C655.124 349.153 655.017 349.172 654.911 349.19C654.924 356.935 654.544 367.197 652.998 371.845C637.983 371.507 626.593 364.976 627.558 357.258C627.639 356.605 627.795 355.957 628.02 355.319Z" fill="#240F00"/>
<path d="M592.847 414.424C602.089 335.734 547.476 277.122 517.708 261.875C532.482 226.48 545.316 232.49 570.643 245.701C659.132 291.857 653.829 385.219 642.564 430.403C606.647 426.282 592.926 422.245 592.847 414.424Z" fill="#3F3D4C"/>
<ellipse rx="26.5578" ry="14.3653" transform="matrix(-0.948356 -0.317207 -0.365883 0.930661 617.351 422.344)" fill="#423932"/>
<path opacity="0.6" fill-rule="evenodd" clip-rule="evenodd" d="M593.099 412.128C601.026 334.595 547.185 276.973 517.708 261.875C518.848 252.496 541.03 263.061 563.842 280.245C622.486 324.42 631.337 368.628 620.072 413.812C619.967 413.8 619.863 413.788 619.759 413.776C617.761 421.467 614.742 431.544 612.095 435.713C598.185 431.06 589.261 421.303 592.164 413.92C592.41 413.294 592.723 412.696 593.099 412.128Z" fill="#240F00"/>
<path opacity="0.5" d="M674.851 226.188L666.511 217.855V211.606L627.592 223.41L570.604 301.181L607.438 349.093C632.457 353.537 653.075 344.927 660.257 340.066L642.882 275.489C660.257 271.323 662.341 253.963 663.036 251.186C663.592 248.964 660.025 240.538 658.172 236.604C662.063 234.937 670.913 228.965 674.851 226.188Z" fill="#220F01"/>
</g>
<path d="M623.125 231.534C576.475 171.721 496.629 173.08 464.447 185.051C451.249 150.222 464.742 144.681 492.285 134.657C588.517 99.6321 648.018 166.37 670.434 205.162C641.296 229.205 628.493 236.734 623.125 231.534Z" fill="#3F3D4C"/>
<ellipse rx="27.0149" ry="14.1637" transform="matrix(-0.895446 0.486322 0.36873 0.911742 646.472 218.566)" fill="#423932"/>
<path opacity="0.6" fill-rule="evenodd" clip-rule="evenodd" d="M621.75 229.801C574.922 171.748 496.315 173.197 464.446 185.051C458.914 177.892 482.355 168.437 510.751 162.962C583.752 148.886 620.258 172.005 642.675 210.797C642.59 210.867 642.505 210.937 642.421 211.006C646.178 217.67 650.806 226.699 651.694 231.479C638.334 238.735 625.166 238.836 622.281 231.704C622.037 231.1 621.861 230.464 621.75 229.801Z" fill="#240F00"/>
<path d="M607.128 269.568C561.674 207.58 482.085 205.506 449.81 216.124C437.259 180.63 450.8 175.655 478.419 166.788C574.916 135.809 633.057 205.295 654.725 245.16C625.276 268.015 612.388 275.014 607.128 269.568Z" fill="#3F3D4C"/>
<ellipse rx="26.7989" ry="14.2594" transform="matrix(-0.907941 0.452747 0.349351 0.923912 630.617 257.569)" fill="#423932"/>
<path opacity="0.6" fill-rule="evenodd" clip-rule="evenodd" d="M605.788 267.772C560.126 207.541 481.77 205.609 449.809 216.124C444.42 208.708 467.941 200.236 496.332 195.968C569.318 184.995 605.298 209.75 626.966 249.616C626.881 249.682 626.795 249.748 626.71 249.815C630.339 256.658 634.795 265.912 635.598 270.744C622.16 277.445 609.036 276.979 606.285 269.703C606.052 269.086 605.887 268.441 605.788 267.772Z" fill="#240F00"/>
<path d="M609.659 332.558C581.083 258.651 505.407 232.272 471.958 232.665C468.494 194.471 482.653 193.804 511.223 193.681C611.044 193.25 649.956 278.298 661.094 323.513C627.403 336.613 613.381 339.439 609.659 332.558Z" fill="#3F3D4C"/>
<ellipse rx="26.5596" ry="14.3638" transform="matrix(-0.986863 0.16156 0.111038 0.993816 635.03 328.139)" fill="#423932"/>
<path opacity="0.6" fill-rule="evenodd" clip-rule="evenodd" d="M608.809 330.409C579.611 258.139 505.08 232.275 471.957 232.664C468.586 223.837 493.139 222.841 521.34 227.404C593.839 239.135 622.314 274.109 633.452 319.324C633.354 319.362 633.256 319.4 633.159 319.438C634.983 327.172 637.019 337.492 636.625 342.414C622.149 344.784 609.7 340.314 608.819 332.43C608.744 331.762 608.742 331.087 608.809 330.409Z" fill="#240F00"/>
<path d="M125.306 404.664C142.552 320.4 224.989 272.816 264.043 264.279C259.787 223.756 243.147 226.85 209.835 234.362C93.4493 260.608 66.5803 359.186 63.4203 409.04C105.515 413.612 122.464 412.793 125.306 404.664Z" fill="#3F3D4C"/>
<ellipse rx="31.5712" ry="15.2764" transform="matrix(0.996707 -0.0810919 0.0812325 0.996695 94.7893 406.867)" fill="#423932"/>
<path opacity="0.6" fill-rule="evenodd" clip-rule="evenodd" d="M125.83 402.209C144.156 319.476 225.37 272.732 264.043 264.279C266.055 254.225 237.234 259.758 205.37 272.03C123.454 303.578 97.8739 347.452 94.7138 397.306C94.8364 397.32 94.9586 397.333 95.0802 397.346C94.6335 405.852 94.5019 417.096 96.0305 422.093C113.409 420.679 126.942 412.716 126.257 404.307C126.199 403.595 126.055 402.894 125.83 402.209Z" fill="#240F00"/>
<path d="M183.317 444.652C164.195 360.793 219.606 283.441 251.645 259.552C231.019 224.403 217.143 234.086 189.91 254.672C94.7604 326.597 111.035 427.463 128.764 474.172C168.991 460.967 184.088 453.228 183.317 444.652Z" fill="#3F3D4C"/>
<ellipse rx="31.5649" ry="15.2795" transform="matrix(0.874402 -0.485203 0.48585 0.874042 156.434 459.25)" fill="#423932"/>
<path opacity="0.6" fill-rule="evenodd" clip-rule="evenodd" d="M182.779 442.2C165.274 359.289 219.918 283.208 251.645 259.552C249.322 249.566 225.36 266.497 201.413 290.821C139.848 353.353 134.685 403.865 152.414 450.573C152.531 450.535 152.648 450.497 152.764 450.459C155.873 458.39 160.401 468.684 163.858 472.605C179.101 464.146 188.135 451.31 184.035 443.934C183.688 443.31 183.267 442.731 182.779 442.2Z" fill="#240F00"/>
<path d="M242.759 460.105C222.177 376.592 276.231 298.287 307.849 273.844C286.614 239.059 272.908 248.983 246.038 270.04C152.157 343.61 170.188 444.177 188.728 490.57C228.719 476.667 243.679 468.667 242.759 460.105Z" fill="#3F3D4C"/>
<ellipse rx="31.5645" ry="15.2797" transform="matrix(0.865821 -0.500355 0.501009 0.865442 216.135 475.168)" fill="#423932"/>
<path opacity="0.6" fill-rule="evenodd" clip-rule="evenodd" d="M242.179 457.663C223.23 375.069 276.54 298.049 307.85 273.844C305.353 263.9 281.69 281.245 258.17 305.982C197.705 369.576 193.424 420.17 211.964 466.563C212.081 466.523 212.197 466.483 212.312 466.443C215.559 474.319 220.265 484.533 223.791 488.392C238.884 479.67 247.692 466.678 243.465 459.375C243.107 458.757 242.676 458.186 242.179 457.663Z" fill="#240F00"/>
<path d="M295.181 471.197C260.723 392.38 300.704 306.051 327.715 276.605C300.883 245.922 289.061 258.024 266.154 283.328C186.119 371.74 220.958 467.795 247.104 510.375C284.156 489.898 297.542 479.478 295.181 471.197Z" fill="#3F3D4C"/>
<ellipse rx="31.5601" ry="15.2818" transform="matrix(0.768463 -0.639895 0.640553 0.767914 271.5 490.553)" fill="#423932"/>
<path opacity="0.6" fill-rule="evenodd" clip-rule="evenodd" d="M294.195 468.889C261.502 390.702 300.968 305.764 327.716 276.605C323.567 267.228 303.191 288.331 284.21 316.695C235.415 389.613 239.782 440.2 265.928 482.779C266.036 482.72 266.144 482.661 266.251 482.602C270.787 489.813 277.159 499.082 281.288 502.288C294.683 491.135 301.159 476.839 295.752 470.358C295.295 469.809 294.774 469.319 294.195 468.889Z" fill="#240F00"/>
<path d="M284.269 440.056C282.045 435.612 280.562 427.095 280.099 423.391C239.095 375.479 152.778 258.546 143.882 262.99C134.986 267.434 108.669 293.311 102.183 300.486L135.542 322.012C131.372 336.594 132.762 361.592 143.882 367.147C152.778 371.591 173.534 372.239 182.801 372.007L186.276 394.227C187.434 397.931 192.114 405.893 201.565 408.115C211.017 410.337 226.817 407.189 233.535 405.337C232.979 410.892 238.4 427.095 241.18 434.501C253.967 440.612 275.234 440.751 284.269 440.056Z" fill="#220F01"/>
<path d="M157.031 288.759C196.29 212.216 288.488 188.495 328.401 190.749C335.192 150.573 318.331 149.089 284.224 147.388C165.059 141.446 112.684 229.195 96.2419 276.371C135.562 292.068 152.108 295.826 157.031 288.759Z" fill="#3F3D4C"/>
<ellipse rx="31.5704" ry="15.2768" transform="matrix(0.981922 0.189288 -0.189607 0.98186 127.043 282.693)" fill="#423932"/>
<path opacity="0.6" fill-rule="evenodd" clip-rule="evenodd" d="M158.195 286.534C198.083 211.756 288.877 188.517 328.401 190.749C333.041 181.604 303.792 179.202 269.8 182.474C182.413 190.888 145.982 226.287 129.539 273.463C129.654 273.509 129.768 273.555 129.881 273.6C127.165 281.674 124.017 292.469 124.146 297.693C141.267 300.993 156.443 296.953 158.042 288.669C158.178 287.968 158.228 287.254 158.195 286.534Z" fill="#240F00"/>
<path d="M202.165 342.841C206.282 256.931 280.446 197.286 317.729 182.87C307.307 143.478 291.338 149.083 259.572 161.607C148.587 205.364 137.157 306.892 141.681 356.641C183.98 354.714 200.602 351.309 202.165 342.841Z" fill="#3F3D4C"/>
<ellipse rx="31.5699" ry="15.2771" transform="matrix(0.972534 -0.232762 0.233147 0.972442 172.347 349.691)" fill="#423932"/>
<path opacity="0.6" fill-rule="evenodd" clip-rule="evenodd" d="M202.305 340.335C207.725 255.772 280.809 197.145 317.729 182.87C318.175 172.627 290.543 182.508 260.938 199.514C184.828 243.233 166.28 290.505 170.805 340.254C170.928 340.248 171.051 340.243 171.173 340.238C172.036 348.712 173.631 359.843 175.908 364.547C192.865 360.488 205.016 350.547 203.049 342.342C202.882 341.647 202.633 340.977 202.305 340.335Z" fill="#240F00"/>
<path d="M255.27 373.673C257.888 287.705 331.001 226.778 368.027 211.715C356.92 172.51 341.051 178.393 309.509 191.468C199.303 237.15 189.645 338.861 195.036 388.524C237.295 385.861 253.856 382.167 255.27 373.673Z" fill="#3F3D4C"/>
<ellipse rx="31.5697" ry="15.2772" transform="matrix(0.968335 -0.249656 0.250064 0.968229 225.575 381.041)" fill="#423932"/>
<path opacity="0.6" fill-rule="evenodd" clip-rule="evenodd" d="M255.368 371.165C259.312 286.521 331.363 226.631 368.028 211.715C368.295 201.466 340.84 211.826 311.536 229.345C236.201 274.382 218.479 321.969 223.871 371.633C223.994 371.625 224.116 371.617 224.238 371.61C225.249 380.067 227.038 391.169 229.396 395.833C246.28 391.48 258.256 381.328 256.146 373.159C255.967 372.468 255.706 371.802 255.368 371.165Z" fill="#240F00"/>
<path d="M302.789 398.422C290.778 313.255 352.491 240.823 386.424 219.705C368.824 182.95 354.183 191.436 325.317 209.666C224.461 273.358 232.206 375.233 245.948 423.263C287.143 413.478 302.837 407.033 302.789 398.422Z" fill="#3F3D4C"/>
<ellipse rx="31.5668" ry="15.2786" transform="matrix(0.912021 -0.410145 0.41074 0.911752 274.774 410.714)" fill="#423932"/>
<path opacity="0.6" fill-rule="evenodd" clip-rule="evenodd" d="M302.458 395.934C291.979 311.848 352.822 240.617 386.424 219.705C384.948 209.559 359.648 224.421 333.742 246.651C267.142 303.8 257.754 353.701 271.497 401.731C271.617 401.703 271.736 401.674 271.855 401.646C274.287 409.81 277.934 420.448 281.05 424.644C296.95 417.494 307.03 405.461 303.564 397.767C303.27 397.116 302.9 396.504 302.458 395.934Z" fill="#240F00"/>
<path d="M202.956 165.082C206.848 162.86 219.867 159.065 225.89 157.444L312.763 305.347C305.535 314.235 301.875 342.843 300.949 356.037C280.099 353.953 258.554 340.76 255.08 333.816C252.3 328.261 271.064 289.145 280.794 274.794C250.91 277.572 236.315 260.212 232.84 251.88C230.06 245.214 237.937 231.974 243.96 222.022C207.821 209.245 201.566 178.739 202.956 165.082Z" fill="#220F01"/>
<path d="M267.119 205.23C333.569 150.555 427.614 165.361 463.351 183.265C485.55 149.085 470.665 141.034 440.038 125.942C333.031 73.213 250.089 132.97 216.25 169.745C246.1 199.751 259.792 209.764 267.119 205.23Z" fill="#3F3D4C"/>
<ellipse rx="31.5627" ry="15.2806" transform="matrix(0.826174 0.563414 -0.564085 0.825716 242.007 187.767)" fill="#423932"/>
<path opacity="0.6" fill-rule="evenodd" clip-rule="evenodd" d="M269.071 203.651C335.398 150.844 427.963 165.536 463.352 183.264C471.244 176.712 445.354 162.903 412.856 152.422C329.31 125.475 281.805 143.511 247.966 180.286C248.053 180.373 248.14 180.46 248.226 180.547C242.524 186.88 235.344 195.538 233.387 200.384C247.789 210.205 263.322 212.518 268.083 205.549C268.486 204.959 268.815 204.325 269.071 203.651Z" fill="#240F00"/>
<path d="M291.465 260.48C351.593 198.931 446.69 203.467 484.158 217.395C502.519 181.013 486.849 174.622 454.765 162.935C342.669 122.103 266.697 190.49 237.047 230.712C269.975 257.309 284.673 265.781 291.465 260.48Z" fill="#3F3D4C"/>
<ellipse rx="31.5653" ry="15.2793" transform="matrix(0.882348 0.470597 -0.471236 0.882007 264.606 245.839)" fill="#423932"/>
<path opacity="0.6" fill-rule="evenodd" clip-rule="evenodd" d="M293.235 258.698C353.443 199.021 447.056 203.603 484.159 217.395C491.294 210.027 464.059 199.103 430.615 192.202C344.639 174.461 299.37 197.534 269.719 237.757C269.815 237.834 269.911 237.911 270.006 237.988C265.025 244.901 258.826 254.286 257.406 259.315C272.788 267.519 288.482 268.136 292.458 260.693C292.795 260.063 293.053 259.396 293.235 258.698Z" fill="#240F00"/>
<path d="M314.847 328.262C355.991 252.713 448.748 231.28 488.594 234.521C496.377 194.525 479.559 192.624 445.505 190.08C326.523 181.192 271.99 267.619 254.384 314.374C293.303 331.039 309.751 335.205 314.847 328.262Z" fill="#3F3D4C"/>
<ellipse rx="31.5702" ry="15.2769" transform="matrix(0.976939 0.213519 -0.213875 0.976861 285.019 321.456)" fill="#423932"/>
<path opacity="0.6" fill-rule="evenodd" clip-rule="evenodd" d="M316.067 326.067C357.796 252.297 449.137 231.312 488.594 234.521C493.459 225.494 464.278 222.368 430.216 224.799C342.648 231.049 305.35 265.536 287.744 312.291C287.857 312.339 287.97 312.388 288.082 312.436C285.167 320.44 281.752 331.155 281.752 336.38C298.786 340.103 314.057 336.439 315.861 328.197C316.014 327.499 316.082 326.787 316.067 326.067Z" fill="#240F00"/>
<g style="mix-blend-mode:multiply">
<path fill-rule="evenodd" clip-rule="evenodd" d="M373.469 406.911C378.082 431.114 388.612 454.22 408.42 461.736C448.681 477.012 506.989 465.902 515.319 456.875C518.77 453.135 523.771 438.31 527.851 421.239C548.206 411.672 566.165 415.385 575.879 420.016C577.903 434.034 580.315 445.988 581.999 449.093C586.227 456.886 615.823 466.477 636.258 453.289C656.693 440.101 657.398 360.374 653.522 351.982C648.81 341.778 576.236 346.639 573.191 365.769C570.89 372.295 572.451 394.096 575.033 413.866C564.352 409.677 547.807 407.334 529.324 414.795C534.243 392.24 537.123 367.776 532.673 360.356C525.563 336.223 377.71 325.807 374.407 344.386C370.555 354.931 368.945 378.184 372.526 401.432C312.111 393.725 211.22 381.035 189.18 378.714C182.043 377.963 168.285 379.809 156.76 386.526C150.95 389.913 145.597 394.601 141.983 400.937C138.352 407.302 136.57 415.168 137.671 424.714L142.951 424.105C141.97 415.597 143.572 408.88 146.6 403.571C149.645 398.233 154.228 394.155 159.437 391.119C169.952 384.99 182.571 383.364 188.623 384.001C210.791 386.335 313.232 399.223 373.469 406.911Z" fill="#595757"/>
</g>
<g style="mix-blend-mode:screen" opacity="0.2">
<mask id="mask2_41_1518" style="mask-type:alpha" maskUnits="userSpaceOnUse" x="137" y="335" width="519" height="135">
<g style="mix-blend-mode:multiply">
<path fill-rule="evenodd" clip-rule="evenodd" d="M373.193 404.795C377.648 430.494 388.273 455.705 409.641 462.6C452.678 476.488 506.989 465.793 515.319 456.478C518.819 452.564 524.25 437.085 528.496 419.317C548.588 409.821 566.267 413.628 575.867 418.358C577.894 432.859 580.312 445.237 581.999 448.447C586.227 456.489 615.823 466.387 636.258 452.777C656.693 439.168 657.398 356.892 653.522 348.231C635.436 342.045 597.15 337.714 573.191 362.459C570.887 369.203 572.455 391.753 575.044 412.177C564.478 407.905 548.186 405.496 529.961 412.869C534.901 389.946 537.367 365.146 531.117 357.054C512.375 337.612 408.253 327.891 374.933 341.778C371.17 346.722 368.588 372.6 372.336 399.321C311.898 391.365 211.206 378.296 189.189 375.903C182.032 375.126 168.259 377.036 156.729 383.971C150.914 387.469 145.569 392.304 141.965 398.825C138.348 405.369 136.572 413.453 137.67 423.269L142.952 422.678C141.967 413.864 143.576 406.899 146.618 401.396C149.673 395.869 154.264 391.657 159.469 388.527C169.978 382.205 182.582 380.533 188.614 381.188C210.748 383.593 312.92 396.858 373.193 404.795Z" fill="#595757"/>
</g>
</mask>
<g mask="url(#mask2_41_1518)">
<path d="M437.155 317.649L345.92 443.875L370.939 462.979L488.392 314.003L437.155 317.649Z" fill="white"/>
<path d="M493.281 333.927L385.966 467.292L390.06 498.311L521.836 343.639L493.281 333.927Z" fill="white"/>
<path d="M674.529 328.734L567.214 462.099L571.309 493.118L703.084 338.445L674.529 328.734Z" fill="white"/>
</g>
</g>
<defs>
<filter id="filter0_d_41_1518" x="0" y="13.3069" width="1087.12" height="1107.12" filterUnits="userSpaceOnUse" color-interpolation-filters="sRGB">
<feFlood flood-opacity="0" result="BackgroundImageFix"/>
<feColorMatrix in="SourceAlpha" type="matrix" values="0 0 0 0 0 0 0 0 0 0 0 0 0 0 0 0 0 0 127 0" result="hardAlpha"/>
<feMorphology radius="75.4025" operator="erode" in="SourceAlpha" result="effect1_dropShadow_41_1518"/>
<feOffset dx="130" dy="150"/>
<feGaussianBlur stdDeviation="101.965"/>
<feComposite in2="hardAlpha" operator="out"/>
<feColorMatrix type="matrix" values="0 0 0 0 0 0 0 0 0 0 0 0 0 0 0 0 0 0 0.4 0"/>
<feBlend mode="normal" in2="BackgroundImageFix" result="effect1_dropShadow_41_1518"/>
<feBlend mode="normal" in="SourceGraphic" in2="effect1_dropShadow_41_1518" result="shape"/>
</filter>
<filter id="filter1_d_41_1518" x="682.3" y="46.9742" width="504.594" height="537.827" filterUnits="userSpaceOnUse" color-interpolation-filters="sRGB">
<feFlood flood-opacity="0" result="BackgroundImageFix"/>
<feColorMatrix in="SourceAlpha" type="matrix" values="0 0 0 0 0 0 0 0 0 0 0 0 0 0 0 0 0 0 127 0" result="hardAlpha"/>
<feOffset dx="20" dy="30"/>
<feGaussianBlur stdDeviation="40"/>
<feComposite in2="hardAlpha" operator="out"/>
<feColorMatrix type="matrix" values="0 0 0 0 0.191667 0 0 0 0 0.187244 0 0 0 0 0.187244 0 0 0 0.3 0"/>
<feBlend mode="normal" in2="BackgroundImageFix" result="effect1_dropShadow_41_1518"/>
<feBlend mode="normal" in="SourceGraphic" in2="effect1_dropShadow_41_1518" result="shape"/>
</filter>
</defs>
</svg>
