<svg width="218" height="47" viewBox="0 0 218 47" fill="none" xmlns="http://www.w3.org/2000/svg">
<rect x="125.334" width="91.7619" height="47" rx="6.71429" fill="#5F85DB"/>
<path d="M3.06171 32.9561C2.41714 32.9561 1.95162 32.8576 1.66514 32.6606C1.37867 32.4458 1.19962 32.1772 1.128 31.8549C1.07429 31.5147 1.04743 31.1656 1.04743 30.8075V16.2509C1.04743 15.8928 1.07429 15.5616 1.128 15.2572C1.19962 14.9349 1.37867 14.6753 1.66514 14.4784C1.95162 14.2635 2.4261 14.1561 3.08857 14.1561H9.776C10.8324 14.1561 11.7724 14.4067 12.596 14.9081C13.4196 15.4094 14.0731 16.0808 14.5566 16.9224C15.04 17.7639 15.2728 18.677 15.2549 19.6618C15.2728 20.0557 15.237 20.4406 15.1474 20.8166C15.0579 21.1926 14.9236 21.5597 14.7446 21.9178C14.5834 22.258 14.3775 22.5713 14.1269 22.8578C14.5029 23.2159 14.8162 23.6277 15.0669 24.0932C15.3175 24.5408 15.5055 25.0153 15.6309 25.5166C15.7741 26.018 15.8457 26.5283 15.8457 27.0475C15.8278 27.8711 15.6667 28.65 15.3623 29.3841C15.0758 30.1003 14.664 30.7269 14.1269 31.2641C13.5897 31.7833 12.972 32.1951 12.2737 32.4995C11.5754 32.8039 10.8324 32.9561 10.0446 32.9561H3.06171ZM5.12971 28.9006H9.776C10.0804 28.9006 10.3848 28.8469 10.6891 28.7395C11.0114 28.6142 11.271 28.3993 11.468 28.0949C11.6829 27.7726 11.7903 27.325 11.7903 26.7521C11.7903 26.3761 11.7455 26.0627 11.656 25.8121C11.5665 25.5614 11.4411 25.3734 11.28 25.2481C11.1189 25.1048 10.9398 25.0064 10.7429 24.9526C10.5459 24.8989 10.34 24.8631 10.1251 24.8452C9.91029 24.8273 9.70438 24.8184 9.50743 24.8184H8.72857C8.11981 24.8184 7.6901 24.693 7.43943 24.4424C7.18876 24.1738 7.06343 23.7172 7.06343 23.0726C7.06343 22.446 7.19771 22.0073 7.46629 21.7566C7.75276 21.506 8.20038 21.3806 8.80914 21.3806H9.588C9.76705 21.3806 9.95505 21.3717 10.152 21.3538C10.349 21.3359 10.519 21.2822 10.6623 21.1926C10.8234 21.1031 10.9488 20.9599 11.0383 20.7629C11.1457 20.5481 11.1994 20.2616 11.1994 19.9035C11.1994 19.2947 11.0472 18.865 10.7429 18.6144C10.4385 18.3458 9.90133 18.2115 9.13143 18.2115H5.12971V28.9006ZM20.1466 32.9561C19.5021 32.9561 19.0365 32.8665 18.7501 32.6875C18.4636 32.4905 18.2845 32.2309 18.2129 31.9086C18.1413 31.5864 18.1055 31.2551 18.1055 30.9149V16.2241C18.1055 15.866 18.1323 15.5347 18.1861 15.2304C18.2577 14.926 18.4367 14.6753 18.7232 14.4784C19.0097 14.2814 19.4842 14.1829 20.1466 14.1829C20.827 14.1829 21.3015 14.2814 21.5701 14.4784C21.8565 14.6753 22.0266 14.926 22.0803 15.2304C22.152 15.5347 22.1878 15.866 22.1878 16.2241V29.4109H29.5466C29.851 29.4109 30.1375 29.4378 30.4061 29.4915C30.6746 29.5452 30.8895 29.6974 31.0506 29.9481C31.2297 30.1987 31.3192 30.6105 31.3192 31.1835C31.3192 31.7385 31.2297 32.1504 31.0506 32.4189C30.8716 32.6696 30.6478 32.8218 30.3792 32.8755C30.1285 32.9292 29.851 32.9561 29.5466 32.9561H20.1466ZM41.6707 33.2246C40.3816 33.2246 39.1641 32.9829 38.0182 32.4995C36.8902 31.9982 35.8965 31.3178 35.037 30.4584C34.1955 29.581 33.5241 28.5694 33.0227 27.4235C32.5393 26.2776 32.2976 25.0422 32.2976 23.7172C32.2976 22.3744 32.5304 21.121 32.9959 19.9572C33.4793 18.7755 34.1328 17.737 34.9565 16.8418C35.798 15.9465 36.7738 15.2483 37.8839 14.7469C38.994 14.2456 40.1847 13.9949 41.4559 13.9949C42.745 13.9949 43.9536 14.2456 45.0816 14.7469C46.2275 15.2304 47.2212 15.9107 48.0627 16.7881C48.9043 17.6654 49.5667 18.686 50.0502 19.8498C50.5515 21.0136 50.8022 22.2759 50.8022 23.6366C50.8022 24.9437 50.5605 26.1791 50.077 27.3429C49.6115 28.4888 48.958 29.5094 48.1165 30.4046C47.2749 31.282 46.2991 31.9713 45.189 32.4726C44.0968 32.974 42.9241 33.2246 41.6707 33.2246ZM41.5365 29.1424C42.2527 29.1424 42.9241 28.9991 43.5507 28.7126C44.1774 28.4262 44.7235 28.0412 45.189 27.5578C45.6725 27.0565 46.0395 26.4745 46.2902 25.8121C46.5587 25.1317 46.693 24.3976 46.693 23.6098C46.693 22.8578 46.5587 22.1505 46.2902 21.4881C46.0216 20.8077 45.6456 20.2168 45.1622 19.7155C44.6967 19.1963 44.1506 18.7934 43.5239 18.5069C42.9151 18.2204 42.2527 18.0772 41.5365 18.0772C40.8382 18.0772 40.1757 18.2204 39.549 18.5069C38.9403 18.7934 38.3942 19.1963 37.9107 19.7155C37.4452 20.2168 37.0692 20.8077 36.7827 21.4881C36.5142 22.1505 36.3799 22.8667 36.3799 23.6366C36.3799 24.3886 36.5142 25.1048 36.7827 25.7852C37.0692 26.4477 37.4452 27.0296 37.9107 27.5309C38.3942 28.0323 38.9403 28.4262 39.549 28.7126C40.1578 28.9991 40.8203 29.1424 41.5365 29.1424ZM61.7494 33.1709C60.4244 33.1709 59.198 32.9203 58.07 32.4189C56.942 31.9176 55.9483 31.2193 55.0888 30.3241C54.2473 29.4288 53.5848 28.3814 53.1014 27.1818C52.6359 25.9822 52.4031 24.6841 52.4031 23.2875C52.4031 21.9625 52.6448 20.7361 53.1283 19.6081C53.6117 18.4622 54.2831 17.4684 55.1425 16.6269C56.002 15.7675 57.0136 15.105 58.1774 14.6395C59.3412 14.1561 60.6035 13.9054 61.9643 13.8875C62.5193 13.8875 63.1102 13.9412 63.7368 14.0486C64.3814 14.1561 65.0081 14.3172 65.6168 14.5321C66.2256 14.7469 66.7538 15.0065 67.2014 15.3109C67.5595 15.5437 67.8728 15.7944 68.1414 16.0629C68.4279 16.3136 68.5711 16.618 68.5711 16.9761C68.589 17.1551 68.5532 17.361 68.4637 17.5938C68.3742 17.8086 68.2488 18.0325 68.0877 18.2652C67.8012 18.677 67.5147 18.9724 67.2283 19.1515C66.9597 19.3305 66.6911 19.4201 66.4225 19.4201C66.2793 19.4201 66.1092 19.3753 65.9123 19.2858C65.7153 19.1963 65.4467 19.0441 65.1065 18.8292C64.9454 18.7218 64.6947 18.6054 64.3545 18.4801C64.0144 18.3547 63.6204 18.2473 63.1728 18.1578C62.7431 18.0504 62.2955 17.9966 61.83 17.9966C60.8094 17.9966 59.8963 18.2294 59.0905 18.6949C58.2848 19.1425 57.6492 19.7692 57.1837 20.5749C56.7361 21.3806 56.5033 22.3117 56.4854 23.3681C56.5033 24.4424 56.745 25.4092 57.2105 26.2686C57.6761 27.1102 58.3117 27.7816 59.1174 28.2829C59.941 28.7843 60.8542 29.0349 61.8568 29.0349C62.2149 29.0349 62.573 29.017 62.9311 28.9812C63.3071 28.9454 63.6652 28.8917 64.0054 28.8201C64.3635 28.7305 64.6858 28.6231 64.9723 28.4978V25.2212H62.0985C61.7942 25.2212 61.5166 25.1944 61.266 25.1406C61.0332 25.0869 60.8363 24.9347 60.6751 24.6841C60.5319 24.4334 60.4603 24.0216 60.4603 23.4486C60.4603 22.8757 60.5408 22.4728 60.702 22.2401C60.8631 21.9894 61.069 21.8372 61.3197 21.7835C61.5883 21.7298 61.8658 21.7029 62.1523 21.7029H67.2283C67.8191 21.7208 68.2399 21.8283 68.4905 22.0252C68.7412 22.2222 68.9024 22.4728 68.974 22.7772C69.0456 23.0637 69.0814 23.377 69.0814 23.7172V29.5721C69.0814 30.0018 68.8844 30.4494 68.4905 30.9149C68.0966 31.3625 67.5595 31.7565 66.8791 32.0966C66.4494 32.3294 65.957 32.5264 65.402 32.6875C64.8648 32.8307 64.2919 32.9471 63.6831 33.0366C63.0744 33.1262 62.4298 33.1709 61.7494 33.1709ZM80.9481 33.1709C79.6231 33.1709 78.3966 32.9203 77.2686 32.4189C76.1406 31.9176 75.1469 31.2193 74.2875 30.3241C73.446 29.4288 72.7835 28.3814 72.3001 27.1818C71.8345 25.9822 71.6018 24.6841 71.6018 23.2875C71.6018 21.9625 71.8435 20.7361 72.3269 19.6081C72.8103 18.4622 73.4818 17.4684 74.3412 16.6269C75.2006 15.7675 76.2123 15.105 77.3761 14.6395C78.5399 14.1561 79.8022 13.9054 81.1629 13.8875C81.718 13.8875 82.3088 13.9412 82.9355 14.0486C83.5801 14.1561 84.2067 14.3172 84.8155 14.5321C85.4243 14.7469 85.9524 15.0065 86.4001 15.3109C86.7582 15.5437 87.0715 15.7944 87.3401 16.0629C87.6265 16.3136 87.7698 16.618 87.7698 16.9761C87.7877 17.1551 87.7519 17.361 87.6624 17.5938C87.5728 17.8086 87.4475 18.0325 87.2864 18.2652C86.9999 18.677 86.7134 18.9724 86.4269 19.1515C86.1584 19.3305 85.8898 19.4201 85.6212 19.4201C85.478 19.4201 85.3079 19.3753 85.1109 19.2858C84.914 19.1963 84.6454 19.0441 84.3052 18.8292C84.1441 18.7218 83.8934 18.6054 83.5532 18.4801C83.213 18.3547 82.8191 18.2473 82.3715 18.1578C81.9418 18.0504 81.4942 17.9966 81.0286 17.9966C80.0081 17.9966 79.0949 18.2294 78.2892 18.6949C77.4835 19.1425 76.8479 19.7692 76.3823 20.5749C75.9347 21.3806 75.702 22.3117 75.6841 23.3681C75.702 24.4424 75.9437 25.4092 76.4092 26.2686C76.8747 27.1102 77.5103 27.7816 78.3161 28.2829C79.1397 28.7843 80.0528 29.0349 81.0555 29.0349C81.4136 29.0349 81.7717 29.017 82.1298 28.9812C82.5058 28.9454 82.8639 28.8917 83.2041 28.8201C83.5622 28.7305 83.8844 28.6231 84.1709 28.4978V25.2212H81.2972C80.9928 25.2212 80.7153 25.1944 80.4646 25.1406C80.2319 25.0869 80.0349 24.9347 79.8738 24.6841C79.7305 24.4334 79.6589 24.0216 79.6589 23.4486C79.6589 22.8757 79.7395 22.4728 79.9006 22.2401C80.0618 21.9894 80.2677 21.8372 80.5183 21.7835C80.7869 21.7298 81.0644 21.7029 81.3509 21.7029H86.4269C87.0178 21.7208 87.4385 21.8283 87.6892 22.0252C87.9399 22.2222 88.101 22.4728 88.1726 22.7772C88.2443 23.0637 88.2801 23.377 88.2801 23.7172V29.5721C88.2801 30.0018 88.0831 30.4494 87.6892 30.9149C87.2953 31.3625 86.7582 31.7565 86.0778 32.0966C85.6481 32.3294 85.1557 32.5264 84.6006 32.6875C84.0635 32.8307 83.4905 32.9471 82.8818 33.0366C82.273 33.1262 81.6284 33.1709 80.9481 33.1709ZM93.0564 32.9561C92.4119 32.9561 91.9463 32.8665 91.6599 32.6875C91.3734 32.4905 91.1943 32.2309 91.1227 31.9086C91.069 31.5864 91.0422 31.2551 91.0422 30.9149V16.2241C91.0422 15.4363 91.1943 14.8991 91.4987 14.6126C91.8031 14.3262 92.3492 14.1829 93.137 14.1829H103.289C103.647 14.1829 103.978 14.2187 104.283 14.2904C104.587 14.3441 104.838 14.5142 105.035 14.8006C105.232 15.0871 105.33 15.5705 105.33 16.2509C105.33 16.8955 105.232 17.361 105.035 17.6475C104.838 17.934 104.578 18.113 104.256 18.1846C103.951 18.2384 103.62 18.2652 103.262 18.2652H95.1244V21.7298H100.657C101.015 21.7298 101.328 21.7566 101.597 21.8104C101.883 21.8641 102.107 22.0163 102.268 22.2669C102.43 22.5176 102.51 22.9384 102.51 23.5292C102.51 24.0843 102.43 24.4871 102.268 24.7378C102.107 24.9884 101.883 25.1406 101.597 25.1944C101.311 25.2481 100.979 25.2749 100.603 25.2749H95.1244V28.8738H103.289C103.647 28.8738 103.978 28.9096 104.283 28.9812C104.587 29.0528 104.838 29.2319 105.035 29.5184C105.232 29.7869 105.33 30.2614 105.33 30.9418C105.33 31.5864 105.232 32.0519 105.035 32.3384C104.838 32.6248 104.578 32.7949 104.256 32.8486C103.951 32.9203 103.62 32.9561 103.262 32.9561H93.0564ZM109.395 32.9561C108.75 32.9561 108.285 32.8576 107.998 32.6606C107.712 32.4637 107.533 32.2041 107.461 31.8818C107.408 31.5595 107.381 31.2283 107.381 30.8881V16.1972C107.381 15.857 107.408 15.5347 107.461 15.2304C107.533 14.926 107.712 14.6753 107.998 14.4784C108.285 14.2814 108.759 14.1829 109.422 14.1829H115.008C115.742 14.1829 116.494 14.3172 117.264 14.5858C118.034 14.8544 118.741 15.2662 119.386 15.8212C120.03 16.3763 120.55 17.0656 120.944 17.8892C121.337 18.7128 121.534 19.6886 121.534 20.8166C121.534 21.5686 121.418 22.2938 121.185 22.9921C120.97 23.6904 120.639 24.3349 120.192 24.9258C119.744 25.5166 119.189 26.0269 118.526 26.4566C117.864 26.8685 117.103 27.1639 116.244 27.3429H111.463V30.9149C111.463 31.2551 111.427 31.5864 111.356 31.9086C111.284 32.213 111.105 32.4637 110.818 32.6606C110.532 32.8576 110.057 32.9561 109.395 32.9561ZM120.729 32.4189C120.066 32.9024 119.538 33.0904 119.144 32.9829C118.75 32.8755 118.338 32.5264 117.909 31.9355L113.182 25.1675L117.774 24.5766L121.239 29.5452C121.543 29.9749 121.731 30.342 121.803 30.6464C121.893 30.9507 121.848 31.2372 121.669 31.5058C121.508 31.7744 121.194 32.0787 120.729 32.4189ZM111.463 23.3144H115.196C115.447 23.3144 115.706 23.2696 115.975 23.1801C116.244 23.0726 116.485 22.9204 116.7 22.7235C116.915 22.5265 117.094 22.2669 117.237 21.9446C117.381 21.6224 117.452 21.2374 117.452 20.7898C117.452 20.2705 117.345 19.8229 117.13 19.4469C116.933 19.0709 116.646 18.7844 116.27 18.5875C115.894 18.3726 115.456 18.2652 114.954 18.2652H111.463V23.3144Z" fill="#5F85DB"/>
<path d="M144.673 14.4784C145.318 14.926 145.667 15.3557 145.72 15.7675C145.792 16.1614 145.64 16.6448 145.264 17.2178L139.597 25.7315V30.9686C139.597 31.3088 139.561 31.6401 139.49 31.9624C139.418 32.2667 139.239 32.5174 138.952 32.7144C138.684 32.9113 138.209 33.0098 137.529 33.0098C136.866 33.0098 136.392 32.9113 136.106 32.7144C135.819 32.5174 135.64 32.2578 135.568 31.9355C135.515 31.6132 135.488 31.273 135.488 30.9149V25.7315L129.794 17.2178C129.4 16.6448 129.248 16.1524 129.338 15.7406C129.427 15.3288 129.785 14.9081 130.412 14.4784C130.877 14.174 131.271 13.9949 131.594 13.9412C131.916 13.8875 132.211 13.9502 132.48 14.1292C132.748 14.3083 133.008 14.6037 133.259 15.0155L137.475 21.7298L141.799 15.0155C142.086 14.5858 142.354 14.2904 142.605 14.1292C142.874 13.9502 143.169 13.8875 143.491 13.9412C143.814 13.9949 144.207 14.174 144.673 14.4784ZM160.527 30.1092C160.742 30.5568 160.858 30.9418 160.876 31.2641C160.894 31.5685 160.795 31.846 160.581 32.0966C160.384 32.3294 160.052 32.5622 159.587 32.7949C158.871 33.1351 158.316 33.2336 157.922 33.0904C157.528 32.965 157.161 32.5443 156.821 31.8281L151.557 20.8166L146.319 31.8281C145.961 32.5264 145.585 32.9382 145.191 33.0635C144.815 33.2067 144.269 33.1083 143.553 32.7681C143.088 32.5532 142.747 32.3294 142.533 32.0966C142.336 31.846 142.246 31.5595 142.264 31.2372C142.282 30.897 142.407 30.5031 142.64 30.0555L149.703 15.3646C149.882 15.0065 150.142 14.7201 150.482 14.5052C150.84 14.2904 151.207 14.1829 151.583 14.1829C151.852 14.1829 152.103 14.2366 152.335 14.3441C152.568 14.4336 152.774 14.5679 152.953 14.7469C153.15 14.926 153.311 15.1408 153.437 15.3915L160.527 30.1092ZM147.045 28.5784L148.71 25.1138H154.43L156.095 28.5784H147.045ZM164.421 32.9561C163.776 32.9561 163.311 32.8576 163.024 32.6606C162.738 32.4637 162.559 32.2041 162.487 31.8818C162.433 31.5595 162.406 31.2283 162.406 30.8881V16.1972C162.406 15.857 162.433 15.5347 162.487 15.2304C162.559 14.926 162.738 14.6753 163.024 14.4784C163.311 14.2814 163.785 14.1829 164.448 14.1829H170.034C170.768 14.1829 171.52 14.3172 172.29 14.5858C173.06 14.8544 173.767 15.2662 174.412 15.8212C175.056 16.3763 175.575 17.0656 175.969 17.8892C176.363 18.7128 176.56 19.6886 176.56 20.8166C176.56 21.5686 176.444 22.2938 176.211 22.9921C175.996 23.6904 175.665 24.3349 175.217 24.9258C174.77 25.5166 174.215 26.0269 173.552 26.4566C172.89 26.8685 172.129 27.1639 171.269 27.3429H166.489V30.9149C166.489 31.2551 166.453 31.5864 166.381 31.9086C166.31 32.213 166.131 32.4637 165.844 32.6606C165.558 32.8576 165.083 32.9561 164.421 32.9561ZM175.754 32.4189C175.092 32.9024 174.564 33.0904 174.17 32.9829C173.776 32.8755 173.364 32.5264 172.934 31.9355L168.208 25.1675L172.8 24.5766L176.265 29.5452C176.569 29.9749 176.757 30.342 176.829 30.6464C176.918 30.9507 176.873 31.2372 176.694 31.5058C176.533 31.7744 176.22 32.0787 175.754 32.4189ZM166.489 23.3144H170.222C170.473 23.3144 170.732 23.2696 171.001 23.1801C171.269 23.0726 171.511 22.9204 171.726 22.7235C171.941 22.5265 172.12 22.2669 172.263 21.9446C172.406 21.6224 172.478 21.2374 172.478 20.7898C172.478 20.2705 172.37 19.8229 172.156 19.4469C171.959 19.0709 171.672 18.7844 171.296 18.5875C170.92 18.3726 170.481 18.2652 169.98 18.2652H166.489V23.3144ZM180.598 32.9561C179.971 32.9561 179.514 32.8576 179.228 32.6606C178.941 32.4637 178.762 32.213 178.691 31.9086C178.619 31.5864 178.583 31.2462 178.583 30.8881V16.1435C178.583 15.8033 178.619 15.49 178.691 15.2035C178.762 14.917 178.941 14.6843 179.228 14.5052C179.532 14.3083 180.016 14.2098 180.678 14.2098C181.323 14.2098 181.77 14.2904 182.021 14.4515C182.272 14.5947 182.495 14.8006 182.692 15.0692L190.535 25.8389V16.1435C190.535 15.8033 190.57 15.49 190.642 15.2035C190.732 14.917 190.92 14.6843 191.206 14.5052C191.493 14.3083 191.958 14.2098 192.603 14.2098C193.265 14.2098 193.731 14.3083 193.999 14.5052C194.286 14.7022 194.456 14.9618 194.51 15.2841C194.581 15.5884 194.617 15.9107 194.617 16.2509V30.9149C194.617 31.2551 194.581 31.5864 194.51 31.9086C194.438 32.213 194.259 32.4637 193.972 32.6606C193.686 32.8576 193.211 32.9561 192.549 32.9561C192.048 32.9561 191.654 32.9113 191.367 32.8218C191.099 32.7323 190.866 32.5622 190.669 32.3115L182.666 21.4612V30.9149C182.666 31.2551 182.63 31.5864 182.558 31.9086C182.486 32.213 182.307 32.4637 182.021 32.6606C181.734 32.8576 181.26 32.9561 180.598 32.9561ZM202.288 26.8595C201.679 26.8595 201.24 26.7789 200.972 26.6178C200.721 26.4387 200.56 26.2149 200.488 25.9464C200.435 25.6778 200.408 25.3913 200.408 25.0869V24.1201C200.408 23.6187 200.506 23.2248 200.703 22.9384C200.9 22.634 201.151 22.3923 201.455 22.2132C201.76 22.0163 202.082 21.8462 202.422 21.7029C202.762 21.5597 203.085 21.4075 203.389 21.2464C203.693 21.0673 203.944 20.8435 204.141 20.5749C204.338 20.3064 204.436 19.9393 204.436 19.4738C204.436 18.7934 204.248 18.2921 203.872 17.9698C203.496 17.6296 202.923 17.4595 202.154 17.4595C201.795 17.4595 201.482 17.5132 201.214 17.6206C200.945 17.7281 200.73 17.8624 200.569 18.0235C200.408 18.1846 200.282 18.3637 200.193 18.5606C200.05 18.9904 199.88 19.3305 199.683 19.5812C199.504 19.8319 199.271 19.9841 198.984 20.0378C198.698 20.0736 198.322 20.002 197.856 19.8229C197.355 19.626 196.988 19.438 196.755 19.2589C196.522 19.062 196.397 18.8292 196.379 18.5606C196.361 18.2921 196.415 17.9429 196.54 17.5132C196.576 17.37 196.666 17.1551 196.809 16.8686C196.952 16.5643 197.149 16.242 197.4 15.9018C197.668 15.5437 198.018 15.2035 198.447 14.8812C198.877 14.541 199.396 14.2635 200.005 14.0486C200.614 13.8338 201.33 13.7264 202.154 13.7264C203.317 13.7264 204.347 13.977 205.242 14.4784C206.137 14.9797 206.836 15.6511 207.337 16.4926C207.856 17.3342 208.116 18.301 208.116 19.3932C208.116 20.1273 208.008 20.7719 207.794 21.3269C207.579 21.882 207.301 22.3565 206.961 22.7504C206.621 23.1264 206.254 23.4397 205.86 23.6904C205.484 23.9231 205.135 24.1111 204.812 24.2544C204.49 24.3797 204.23 24.4692 204.034 24.5229L204.222 24.2006V25.2481C204.222 25.5345 204.186 25.8031 204.114 26.0538C204.042 26.3045 203.872 26.5014 203.604 26.6446C203.335 26.7879 202.897 26.8595 202.288 26.8595ZM202.234 32.9829C201.357 32.9829 200.775 32.8128 200.488 32.4726C200.202 32.1325 200.059 31.5685 200.059 30.7806C200.059 30.4405 200.086 30.1003 200.139 29.7601C200.211 29.4199 200.399 29.1424 200.703 28.9275C201.008 28.7126 201.527 28.6052 202.261 28.6052C203.174 28.6052 203.765 28.7753 204.034 29.1155C204.32 29.4378 204.463 30.0018 204.463 30.8075C204.463 31.1477 204.427 31.4879 204.356 31.8281C204.302 32.1504 204.114 32.4279 203.792 32.6606C203.487 32.8755 202.968 32.9829 202.234 32.9829Z" fill="#F0F0F1"/>
</svg>
